mtllib gravur_distrakt_sw.mtl

v  -86.980000 -8.421372 -3.213384
v  -86.980000 -8.421372 -3.213384
v  -86.980000 -8.421372 -3.213384
v  -86.980000 -8.421372 -11.554089
v  -86.980000 -8.421372 -11.554089
v  -86.980000 -8.421372 -11.554089
v  -86.980000 -2.665298 -11.554089
v  -86.980000 -2.665298 -11.554089
v  -86.980000 -2.665298 -11.554089
v  -86.980000 -2.665298 -3.213384
v  -86.980000 -2.665298 -3.213384
v  -86.980000 -2.665298 -3.213384
v  -86.880000 -8.421372 -3.213384
v  -86.880000 -8.421372 -3.213384
v  -86.880000 -8.421372 -3.213384
v  -86.880000 -2.665298 -3.213384
v  -86.880000 -2.665298 -3.213384
v  -86.880000 -2.665298 -3.213384
v  -86.880000 -2.665298 -11.554089
v  -86.880000 -2.665298 -11.554089
v  -86.880000 -2.665298 -11.554089
v  -86.880000 -8.421372 -11.554089
v  -86.880000 -8.421372 -11.554089
v  -86.880000 -8.421372 -11.554089
v  86.980000 -8.421372 -3.213384
v  86.980000 -8.421372 -3.213384
v  86.980000 -8.421372 -3.213384
v  86.980000 -2.665298 -3.213384
v  86.980000 -2.665298 -3.213384
v  86.980000 -2.665298 -3.213384
v  86.980000 -2.665298 -11.554089
v  86.980000 -2.665298 -11.554089
v  86.980000 -2.665298 -11.554089
v  86.980000 -8.421372 -11.554089
v  86.980000 -8.421372 -11.554089
v  86.980000 -8.421372 -11.554089
v  86.880000 -8.421372 -3.213384
v  86.880000 -8.421372 -3.213384
v  86.880000 -8.421372 -3.213384
v  86.880000 -8.421372 -11.554089
v  86.880000 -8.421372 -11.554089
v  86.880000 -8.421372 -11.554089
v  86.880000 -2.665298 -11.554089
v  86.880000 -2.665298 -11.554089
v  86.880000 -2.665298 -11.554089
v  86.880000 -2.665298 -3.213384
v  86.880000 -2.665298 -3.213384
v  86.880000 -2.665298 -3.213384

vt  0.021389 0.095396 0.000000
vt  0.021389 0.095396 0.000000
vt  0.021389 0.095396 0.000000
vt  0.021389 0.000696 0.000000
vt  0.021389 0.000696 0.000000
vt  0.021389 0.000696 0.000000
vt  0.000000 0.000150 0.000000
vt  0.000000 0.000150 0.000000
vt  0.000000 0.000150 0.000000
vt  0.000000 0.095242 0.000000
vt  0.000000 0.095242 0.000000
vt  0.000000 0.095242 0.000000
vt  0.021425 0.095354 0.000000
vt  0.021425 0.095354 0.000000
vt  0.021425 0.095354 0.000000
vt  0.000011 0.095200 0.000000
vt  0.000011 0.095200 0.000000
vt  0.000011 0.095200 0.000000
vt  0.000011 0.000000 0.000000
vt  0.000011 0.000000 0.000000
vt  0.000011 0.000000 0.000000
vt  0.021425 0.000548 0.000000
vt  0.021425 0.000548 0.000000
vt  0.021425 0.000548 0.000000
vt  0.978611 0.095396 0.000000
vt  0.978611 0.095396 0.000000
vt  0.978611 0.095396 0.000000
vt  1.000000 0.095242 0.000000
vt  1.000000 0.095242 0.000000
vt  1.000000 0.095242 0.000000
vt  1.000000 0.000150 0.000000
vt  1.000000 0.000150 0.000000
vt  1.000000 0.000150 0.000000
vt  0.978611 0.000696 0.000000
vt  0.978611 0.000696 0.000000
vt  0.978611 0.000696 0.000000
vt  0.978575 0.095354 0.000000
vt  0.978575 0.095354 0.000000
vt  0.978575 0.095354 0.000000
vt  0.978575 0.000548 0.000000
vt  0.978575 0.000548 0.000000
vt  0.978575 0.000548 0.000000
vt  0.999989 0.000000 0.000000
vt  0.999989 0.000000 0.000000
vt  0.999989 0.000000 0.000000
vt  0.999989 0.095200 0.000000
vt  0.999989 0.095200 0.000000
vt  0.999989 0.095200 0.000000

vn  -1.000000 0.000000 0.000000
vn  0.000000 0.000000 1.000000
vn  0.000000 -1.000000 0.000000
vn  -1.000000 0.000000 0.000000
vn  0.000000 0.000000 -1.000000
vn  0.000000 -1.000000 0.000000
vn  -1.000000 0.000000 0.000000
vn  0.000000 1.000000 0.000000
vn  0.000000 0.000000 -1.000000
vn  -1.000000 0.000000 0.000000
vn  0.000000 0.000000 1.000000
vn  0.000000 1.000000 0.000000
vn  1.000000 0.000000 0.000000
vn  0.000000 0.000000 1.000000
vn  0.000000 -1.000000 0.000000
vn  1.000000 0.000000 0.000000
vn  0.000000 0.000000 1.000000
vn  0.000000 1.000000 0.000000
vn  1.000000 0.000000 0.000000
vn  0.000000 1.000000 0.000000
vn  0.000000 0.000000 -1.000000
vn  1.000000 0.000000 0.000000
vn  0.000000 0.000000 -1.000000
vn  0.000000 -1.000000 0.000000
vn  1.000000 0.000000 0.000000
vn  0.000000 0.000000 1.000000
vn  0.000000 -1.000000 0.000000
vn  1.000000 0.000000 0.000000
vn  0.000000 0.000000 1.000000
vn  0.000000 1.000000 0.000000
vn  1.000000 0.000000 0.000000
vn  0.000000 1.000000 0.000000
vn  0.000000 0.000000 -1.000000
vn  1.000000 0.000000 0.000000
vn  0.000000 0.000000 -1.000000
vn  0.000000 -1.000000 0.000000
vn  -1.000000 0.000000 0.000000
vn  0.000000 0.000000 1.000000
vn  0.000000 -1.000000 0.000000
vn  -1.000000 0.000000 0.000000
vn  0.000000 0.000000 -1.000000
vn  0.000000 -1.000000 0.000000
vn  -1.000000 0.000000 0.000000
vn  0.000000 1.000000 0.000000
vn  0.000000 0.000000 -1.000000
vn  -1.000000 0.000000 0.000000
vn  0.000000 0.000000 1.000000
vn  0.000000 1.000000 0.000000


g 0
g 1
usemtl DEFAULT_MTL
f 7/7/7  4/4/4  1/1/1
f 15/15/15  3/3/3  6/6/6
f 10/10/10  7/7/7  1/1/1
f 17/17/17  11/11/11  2/2/2
f 17/17/17  2/2/2  14/14/14
f 23/23/23  5/5/5  9/9/9
f 24/24/24  15/15/15  6/6/6
f 20/20/20  8/8/8  12/12/12
f 23/23/23  9/9/9  21/21/21
f 20/20/20  12/12/12  18/18/18
f 22/22/22  16/16/16  13/13/13
f 22/22/22  19/19/19  16/16/16
f 34/34/34  28/28/28  25/25/25
f 38/38/38  26/26/26  29/29/29
f 42/42/42  36/36/36  27/27/27
f 42/42/42  27/27/27  39/39/39
f 34/34/34  31/31/31  28/28/28
f 48/48/48  30/30/30  32/32/32
f 47/47/47  38/38/38  29/29/29
f 45/45/45  33/33/33  35/35/35
f 48/48/48  32/32/32  44/44/44
f 45/45/45  35/35/35  41/41/41
f 43/43/43  40/40/40  37/37/37
f 46/46/46  43/43/43  37/37/37
