solid CATIA STL
  facet normal  0.000000e+00  0.141845e+00  0.989888e+00
    outer loop
      vertex  1.136637e+00  0.749383e+00  3.967811e+00
      vertex -1.255029e+00  0.524749e+00  4.000000e+00
      vertex  1.255029e+00  0.524749e+00  4.000000e+00
    endloop
  endfacet
  facet normal -0.119352e-04  0.141970e+00  0.989870e+00
    outer loop
      vertex -1.255029e+00  0.524749e+00  4.000000e+00
      vertex  1.136637e+00  0.749383e+00  3.967811e+00
      vertex -1.136519e+00  0.749566e+00  3.967757e+00
    endloop
  endfacet
  facet normal  0.114556e-04  0.409848e+00  0.912153e+00
    outer loop
      vertex  0.979897e+00  0.949678e+00  3.877816e+00
      vertex -1.136519e+00  0.749566e+00  3.967757e+00
      vertex  1.136637e+00  0.749383e+00  3.967811e+00
    endloop
  endfacet
  facet normal -0.263252e-04  0.410181e+00  0.912004e+00
    outer loop
      vertex -1.136519e+00  0.749566e+00  3.967757e+00
      vertex  0.979897e+00  0.949678e+00  3.877816e+00
      vertex -0.979598e+00  0.949997e+00  3.877616e+00
    endloop
  endfacet
  facet normal  0.253542e-04  0.638719e+00  0.769439e+00
    outer loop
      vertex  0.863768e+00  1.112749e+00  3.742454e+00
      vertex -0.979598e+00  0.949997e+00  3.877616e+00
      vertex  0.979897e+00  0.949678e+00  3.877816e+00
    endloop
  endfacet
  facet normal -0.195570e-04  0.639020e+00  0.769189e+00
    outer loop
      vertex -0.979598e+00  0.949997e+00  3.877616e+00
      vertex  0.863768e+00  1.112749e+00  3.742454e+00
      vertex -0.863485e+00  1.112922e+00  3.742265e+00
    endloop
  endfacet
  facet normal  0.210261e-04  0.823729e+00  0.566982e+00
    outer loop
      vertex  0.812449e+00  1.241394e+00  3.555555e+00
      vertex -0.863485e+00  1.112922e+00  3.742265e+00
      vertex  0.863768e+00  1.112749e+00  3.742454e+00
    endloop
  endfacet
  facet normal  0.000000e+00  0.823818e+00  0.566854e+00
    outer loop
      vertex -0.863485e+00  1.112922e+00  3.742265e+00
      vertex  0.812449e+00  1.241394e+00  3.555555e+00
      vertex -0.812170e+00  1.241394e+00  3.555555e+00
    endloop
  endfacet
  facet normal -0.994558e+00  0.977072e-01  0.361405e-01
    outer loop
      vertex -0.889683e+00  1.560248e+00  0.000000e+00
      vertex -0.786973e+00  1.358025e+00  3.373194e+00
      vertex -0.777161e+00  1.515884e+00  3.216445e+00
    endloop
  endfacet
  facet normal -0.981843e+00  0.185208e+00  0.409990e-01
    outer loop
      vertex -0.786973e+00  1.358025e+00  3.373194e+00
      vertex -0.889683e+00  1.560248e+00  0.000000e+00
      vertex -0.944627e+00  1.268972e+00  0.444089e-16
    endloop
  endfacet
  facet normal -0.962855e+00  0.267337e+00  0.379433e-01
    outer loop
      vertex -0.786973e+00  1.358025e+00  3.373194e+00
      vertex -0.944627e+00  1.268972e+00  0.444089e-16
      vertex -0.812170e+00  1.241394e+00  3.555555e+00
    endloop
  endfacet
  facet normal -0.908300e+00  0.416673e+00  0.370692e-01
    outer loop
      vertex -0.944627e+00  1.268972e+00  0.444089e-16
      vertex -0.863485e+00  1.112922e+00  3.742265e+00
      vertex -0.812170e+00  1.241394e+00  3.555555e+00
    endloop
  endfacet
  facet normal -0.846919e+00  0.530178e+00  0.404714e-01
    outer loop
      vertex -0.863485e+00  1.112922e+00  3.742265e+00
      vertex -0.944627e+00  1.268972e+00  0.444089e-16
      vertex -1.101882e+00  1.017769e+00  0.444089e-16
    endloop
  endfacet
  facet normal -0.799244e+00  0.599946e+00  0.356604e-01
    outer loop
      vertex -0.863485e+00  1.112922e+00  3.742265e+00
      vertex -1.101882e+00  1.017769e+00  0.444089e-16
      vertex -1.040297e+00  0.984118e+00  1.946414e+00
    endloop
  endfacet
  facet normal -0.799569e+00  0.599510e+00  0.357236e-01
    outer loop
      vertex -0.863485e+00  1.112922e+00  3.742265e+00
      vertex -1.040297e+00  0.984118e+00  1.946414e+00
      vertex -0.979598e+00  0.949997e+00  3.877616e+00
    endloop
  endfacet
  facet normal  0.336611e+00 -0.941021e+00  0.342340e-01
    outer loop
      vertex  0.719138e+00 -1.316373e+00 -0.799360e-14
      vertex  0.259107e+00 -1.335412e+00  4.000000e+00
      vertex  0.278944e+00 -1.473835e+00  0.444089e-16
    endloop
  endfacet
  facet normal  0.338769e+00 -0.940236e+00  0.344860e-01
    outer loop
      vertex  0.259107e+00 -1.335412e+00  4.000000e+00
      vertex  0.719138e+00 -1.316373e+00 -0.799360e-14
      vertex  0.652170e+00 -1.193790e+00  4.000000e+00
    endloop
  endfacet
  facet normal  0.305554e-01 -0.998954e+00  0.340016e-01
    outer loop
      vertex  0.278944e+00 -1.473835e+00  0.444089e-16
      vertex -0.158396e+00 -1.351063e+00  4.000000e+00
      vertex -0.188345e+00 -1.488128e+00  0.444089e-16
    endloop
  endfacet
  facet normal  0.374391e-01 -0.998694e+00  0.347462e-01
    outer loop
      vertex -0.158396e+00 -1.351063e+00  4.000000e+00
      vertex  0.278944e+00 -1.473835e+00  0.444089e-16
      vertex  0.259107e+00 -1.335412e+00  4.000000e+00
    endloop
  endfacet
  facet normal -0.278473e+00 -0.959849e+00  0.337762e-01
    outer loop
      vertex -0.188345e+00 -1.488128e+00  0.444089e-16
      vertex -0.560959e+00 -1.239268e+00  4.000000e+00
      vertex -0.637340e+00 -1.357865e+00  0.444089e-16
    endloop
  endfacet
  facet normal -0.267417e+00 -0.962944e+00  0.349986e-01
    outer loop
      vertex -0.560959e+00 -1.239268e+00  4.000000e+00
      vertex -0.188345e+00 -1.488128e+00  0.444089e-16
      vertex -0.158396e+00 -1.351063e+00  4.000000e+00
    endloop
  endfacet
  facet normal -0.560456e+00 -0.827503e+00  0.335578e-01
    outer loop
      vertex -0.637340e+00 -1.357865e+00  0.444089e-16
      vertex -0.910606e+00 -1.010572e+00  4.000000e+00
      vertex -1.024423e+00 -1.095699e+00  0.444089e-16
    endloop
  endfacet
  facet normal -0.547043e+00 -0.836361e+00  0.352432e-01
    outer loop
      vertex -0.910606e+00 -1.010572e+00  4.000000e+00
      vertex -0.637340e+00 -1.357865e+00  0.444089e-16
      vertex -0.560959e+00 -1.239268e+00  4.000000e+00
    endloop
  endfacet
  facet normal -0.787999e+00 -0.614771e+00  0.333466e-01
    outer loop
      vertex -1.024423e+00 -1.095699e+00  0.444089e-16
      vertex -1.174356e+00 -0.686549e+00  4.000000e+00
      vertex -1.311994e+00 -0.727097e+00  0.444089e-16
    endloop
  endfacet
  facet normal -0.775063e+00 -0.630887e+00  0.354800e-01
    outer loop
      vertex -1.174356e+00 -0.686549e+00  4.000000e+00
      vertex -1.024423e+00 -1.095699e+00  0.444089e-16
      vertex -0.910606e+00 -1.010572e+00  4.000000e+00
    endloop
  endfacet
  facet normal -0.938999e+00 -0.342316e+00  0.331425e-01
    outer loop
      vertex -1.311994e+00 -0.727097e+00  0.444089e-16
      vertex -1.327327e+00 -0.297763e+00  4.000000e+00
      vertex -1.472118e+00 -0.287865e+00  0.444089e-16
    endloop
  endfacet
  facet normal -0.929966e+00 -0.365904e+00  0.357089e-01
    outer loop
      vertex -1.327327e+00 -0.297763e+00  4.000000e+00
      vertex -1.311994e+00 -0.727097e+00  0.444089e-16
      vertex -1.174356e+00 -0.686549e+00  4.000000e+00
    endloop
  endfacet
  facet normal -0.998786e+00 -0.366058e-01  0.329455e-01
    outer loop
      vertex -1.472118e+00 -0.287865e+00  0.444089e-16
      vertex -1.355092e+00  0.119111e+00  4.000000e+00
      vertex -1.489241e+00  0.179330e+00  0.444089e-16
    endloop
  endfacet
  facet normal -0.997145e+00 -0.664110e-01  0.359300e-01
    outer loop
      vertex -1.355092e+00  0.119111e+00  4.000000e+00
      vertex -1.472118e+00 -0.287865e+00  0.444089e-16
      vertex -1.327327e+00 -0.297763e+00  4.000000e+00
    endloop
  endfacet
  facet normal -0.970262e+00  0.239343e+00  0.361432e-01
    outer loop
      vertex -1.355092e+00  0.119111e+00  4.000000e+00
      vertex -1.255029e+00  0.524749e+00  4.000000e+00
      vertex -1.489241e+00  0.179330e+00  0.444089e-16
    endloop
  endfacet
  facet normal -0.961551e+00  0.272664e+00  0.327557e-01
    outer loop
      vertex -1.489241e+00  0.179330e+00  0.444089e-16
      vertex -1.255029e+00  0.524749e+00  4.000000e+00
      vertex -1.361699e+00  0.629105e+00  0.444089e-16
    endloop
  endfacet
  facet normal -0.779066e+00  0.625933e+00  0.355460e-01
    outer loop
      vertex -1.040297e+00  0.984118e+00  1.946414e+00
      vertex -1.136519e+00  0.749566e+00  3.967757e+00
      vertex -0.979598e+00  0.949997e+00  3.877616e+00
    endloop
  endfacet
  facet normal -0.779437e+00  0.625474e+00  0.354751e-01
    outer loop
      vertex -1.136519e+00  0.749566e+00  3.967757e+00
      vertex -1.040297e+00  0.984118e+00  1.946414e+00
      vertex -1.101882e+00  1.017769e+00  0.444089e-16
    endloop
  endfacet
  facet normal -0.830969e+00  0.555492e+00  0.302948e-01
    outer loop
      vertex -1.136519e+00  0.749566e+00  3.967757e+00
      vertex -1.101882e+00  1.017769e+00  0.444089e-16
      vertex -1.361699e+00  0.629105e+00  0.444089e-16
    endloop
  endfacet
  facet normal -0.881924e+00  0.470030e+00  0.357813e-01
    outer loop
      vertex -1.136519e+00  0.749566e+00  3.967757e+00
      vertex -1.361699e+00  0.629105e+00  0.444089e-16
      vertex -1.255029e+00  0.524749e+00  4.000000e+00
    endloop
  endfacet
  facet normal  0.000000e+00  0.000000e+00  1.000000e+00
    outer loop
      vertex -1.255029e+00  0.524749e+00  4.000000e+00
      vertex  1.353154e+00  0.139407e+00  4.000000e+00
      vertex  1.255029e+00  0.524749e+00  4.000000e+00
    endloop
  endfacet
  facet normal  0.000000e+00  0.000000e+00  1.000000e+00
    outer loop
      vertex  1.353154e+00  0.139407e+00  4.000000e+00
      vertex -1.255029e+00  0.524749e+00  4.000000e+00
      vertex -1.355092e+00  0.119111e+00  4.000000e+00
    endloop
  endfacet
  facet normal  0.000000e+00  0.000000e+00  1.000000e+00
    outer loop
      vertex -1.355092e+00  0.119111e+00  4.000000e+00
      vertex  1.335656e+00 -0.257846e+00  4.000000e+00
      vertex  1.353154e+00  0.139407e+00  4.000000e+00
    endloop
  endfacet
  facet normal  0.000000e+00  0.000000e+00  1.000000e+00
    outer loop
      vertex  1.335656e+00 -0.257846e+00  4.000000e+00
      vertex -1.355092e+00  0.119111e+00  4.000000e+00
      vertex -1.327327e+00 -0.297763e+00  4.000000e+00
    endloop
  endfacet
  facet normal  0.000000e+00  0.000000e+00  1.000000e+00
    outer loop
      vertex -1.327327e+00 -0.297763e+00  4.000000e+00
      vertex  1.204029e+00 -0.633068e+00  4.000000e+00
      vertex  1.335656e+00 -0.257846e+00  4.000000e+00
    endloop
  endfacet
  facet normal  0.000000e+00  0.000000e+00  1.000000e+00
    outer loop
      vertex  1.204029e+00 -0.633068e+00  4.000000e+00
      vertex -1.327327e+00 -0.297763e+00  4.000000e+00
      vertex -1.174356e+00 -0.686549e+00  4.000000e+00
    endloop
  endfacet
  facet normal  0.000000e+00  0.000000e+00  1.000000e+00
    outer loop
      vertex -1.174356e+00 -0.686549e+00  4.000000e+00
      vertex  0.969521e+00 -0.954196e+00  4.000000e+00
      vertex  1.204029e+00 -0.633068e+00  4.000000e+00
    endloop
  endfacet
  facet normal  0.000000e+00  0.000000e+00  1.000000e+00
    outer loop
      vertex  0.969521e+00 -0.954196e+00  4.000000e+00
      vertex -1.174356e+00 -0.686549e+00  4.000000e+00
      vertex -0.910606e+00 -1.010572e+00  4.000000e+00
    endloop
  endfacet
  facet normal  0.000000e+00  0.000000e+00  1.000000e+00
    outer loop
      vertex -0.910606e+00 -1.010572e+00  4.000000e+00
      vertex  0.652170e+00 -1.193790e+00  4.000000e+00
      vertex  0.969521e+00 -0.954196e+00  4.000000e+00
    endloop
  endfacet
  facet normal  0.000000e+00  0.000000e+00  1.000000e+00
    outer loop
      vertex  0.652170e+00 -1.193790e+00  4.000000e+00
      vertex -0.910606e+00 -1.010572e+00  4.000000e+00
      vertex -0.560959e+00 -1.239268e+00  4.000000e+00
    endloop
  endfacet
  facet normal  0.000000e+00  0.000000e+00  1.000000e+00
    outer loop
      vertex -0.560959e+00 -1.239268e+00  4.000000e+00
      vertex  0.259107e+00 -1.335412e+00  4.000000e+00
      vertex  0.652170e+00 -1.193790e+00  4.000000e+00
    endloop
  endfacet
  facet normal  0.000000e+00  0.000000e+00  1.000000e+00
    outer loop
      vertex  0.259107e+00 -1.335412e+00  4.000000e+00
      vertex -0.560959e+00 -1.239268e+00  4.000000e+00
      vertex -0.158396e+00 -1.351063e+00  4.000000e+00
    endloop
  endfacet
  facet normal  0.000000e+00 -0.999767e+00  0.215717e-01
    outer loop
      vertex  1.486779e+00  3.137201e+00  4.000000e+00
      vertex  0.750249e+00  3.137201e+00  4.000000e+00
      vertex  1.496102e+00  3.136270e+00  3.956872e+00
    endloop
  endfacet
  facet normal  0.000000e+00 -0.999767e+00  0.215717e-01
    outer loop
      vertex -0.749750e+00  3.137201e+00  4.000000e+00
      vertex  1.496102e+00  3.136270e+00  3.956872e+00
      vertex  0.750249e+00  3.137201e+00  4.000000e+00
    endloop
  endfacet
  facet normal  0.000000e+00 -0.999767e+00  0.215717e-01
    outer loop
      vertex -1.486280e+00  3.137201e+00  4.000000e+00
      vertex  1.496102e+00  3.136270e+00  3.956872e+00
      vertex -0.749750e+00  3.137201e+00  4.000000e+00
    endloop
  endfacet
  facet normal -0.590489e-07 -0.999767e+00  0.215676e-01
    outer loop
      vertex -1.495608e+00  3.136270e+00  3.956875e+00
      vertex  1.496102e+00  3.136270e+00  3.956872e+00
      vertex -1.486280e+00  3.137201e+00  4.000000e+00
    endloop
  endfacet
  facet normal -0.279546e-07 -0.998542e+00  0.539802e-01
    outer loop
      vertex  1.496102e+00  3.136270e+00  3.956872e+00
      vertex -1.495608e+00  3.136270e+00  3.956875e+00
      vertex  1.491118e+00  3.135097e+00  3.935160e+00
    endloop
  endfacet
  facet normal  0.518052e-07 -0.998541e+00  0.539912e-01
    outer loop
      vertex -1.490628e+00  3.135097e+00  3.935163e+00
      vertex  1.491118e+00  3.135097e+00  3.935160e+00
      vertex -1.495608e+00  3.136270e+00  3.956875e+00
    endloop
  endfacet
  facet normal  0.768323e-07 -0.996788e+00  0.800743e-01
    outer loop
      vertex  1.491118e+00  3.135097e+00  3.935160e+00
      vertex -1.490628e+00  3.135097e+00  3.935163e+00
      vertex  1.476250e+00  3.132651e+00  3.904712e+00
    endloop
  endfacet
  facet normal -0.287745e-07 -0.996789e+00  0.800641e-01
    outer loop
      vertex -1.475764e+00  3.132651e+00  3.904714e+00
      vertex  1.476250e+00  3.132651e+00  3.904712e+00
      vertex -1.490628e+00  3.135097e+00  3.935163e+00
    endloop
  endfacet
  facet normal  0.790786e-08 -0.990698e+00  0.136076e+00
    outer loop
      vertex  1.476250e+00  3.132651e+00  3.904712e+00
      vertex -1.475764e+00  3.132651e+00  3.904714e+00
      vertex  1.417632e+00  3.121477e+00  3.823363e+00
    endloop
  endfacet
  facet normal  0.114446e-07 -0.990698e+00  0.136076e+00
    outer loop
      vertex -1.417155e+00  3.121477e+00  3.823363e+00
      vertex  1.417632e+00  3.121477e+00  3.823363e+00
      vertex -1.475764e+00  3.132651e+00  3.904714e+00
    endloop
  endfacet
  facet normal  0.212981e-07 -0.967405e+00  0.253234e+00
    outer loop
      vertex  1.417632e+00  3.121477e+00  3.823363e+00
      vertex -1.417155e+00  3.121477e+00  3.823363e+00
      vertex  1.292589e+00  3.081784e+00  3.671727e+00
    endloop
  endfacet
  facet normal  0.999926e-07 -0.967404e+00  0.253235e+00
    outer loop
      vertex -1.292127e+00  3.081783e+00  3.671724e+00
      vertex  1.292589e+00  3.081784e+00  3.671727e+00
      vertex -1.417155e+00  3.121477e+00  3.823363e+00
    endloop
  endfacet
  facet normal -0.158241e-06 -0.879556e+00  0.475794e+00
    outer loop
      vertex  1.292589e+00  3.081784e+00  3.671727e+00
      vertex -1.292127e+00  3.081783e+00  3.671724e+00
      vertex  1.054132e+00  2.928871e+00  3.389050e+00
    endloop
  endfacet
  facet normal  0.544804e-06 -0.879554e+00  0.475798e+00
    outer loop
      vertex -1.053702e+00  2.928866e+00  3.389045e+00
      vertex  1.054132e+00  2.928871e+00  3.389050e+00
      vertex -1.292127e+00  3.081783e+00  3.671724e+00
    endloop
  endfacet
  facet normal -0.371372e-06 -0.728530e+00  0.685013e+00
    outer loop
      vertex  1.054132e+00  2.928871e+00  3.389050e+00
      vertex -1.053702e+00  2.928866e+00  3.389045e+00
      vertex  0.937863e+00  2.795691e+00  3.247411e+00
    endloop
  endfacet
  facet normal  0.394016e-06 -0.728524e+00  0.685019e+00
    outer loop
      vertex -0.937452e+00  2.795686e+00  3.247406e+00
      vertex  0.937863e+00  2.795691e+00  3.247411e+00
      vertex -1.053702e+00  2.928866e+00  3.389045e+00
    endloop
  endfacet
  facet normal -0.418928e-06 -0.577218e+00  0.816589e+00
    outer loop
      vertex  0.937863e+00  2.795691e+00  3.247411e+00
      vertex -0.937452e+00  2.795686e+00  3.247406e+00
      vertex  0.846224e+00  2.626970e+00  3.128148e+00
    endloop
  endfacet
  facet normal  0.279629e-06 -0.577213e+00  0.816593e+00
    outer loop
      vertex -0.845831e+00  2.626966e+00  3.128145e+00
      vertex  0.846224e+00  2.626970e+00  3.128148e+00
      vertex -0.937452e+00  2.795686e+00  3.247406e+00
    endloop
  endfacet
  facet normal -0.300473e-06 -0.414607e+00  0.910000e+00
    outer loop
      vertex  0.846224e+00  2.626970e+00  3.128148e+00
      vertex -0.845831e+00  2.626966e+00  3.128145e+00
      vertex  0.800569e+00  2.473700e+00  3.058316e+00
    endloop
  endfacet
  facet normal  0.161187e-06 -0.414603e+00  0.910002e+00
    outer loop
      vertex -0.800186e+00  2.473698e+00  3.058315e+00
      vertex  0.800569e+00  2.473700e+00  3.058316e+00
      vertex -0.845831e+00  2.626966e+00  3.128145e+00
    endloop
  endfacet
  facet normal -0.238879e-07 -0.253471e+00  0.967342e+00
    outer loop
      vertex  0.800569e+00  2.473700e+00  3.058316e+00
      vertex -0.800186e+00  2.473698e+00  3.058315e+00
      vertex  0.784609e+00  2.305747e+00  3.014307e+00
    endloop
  endfacet
  facet normal -0.283794e-06 -0.253473e+00  0.967342e+00
    outer loop
      vertex -0.784232e+00  2.305751e+00  3.014308e+00
      vertex  0.784609e+00  2.305747e+00  3.014307e+00
      vertex -0.800186e+00  2.473698e+00  3.058315e+00
    endloop
  endfacet
  facet normal  0.161439e-04  0.248201e+00  0.968708e+00
    outer loop
      vertex  0.784894e+00  2.026657e+00  3.006129e+00
      vertex -0.784519e+00  2.026837e+00  3.006109e+00
      vertex  0.782478e+00  1.756203e+00  3.075425e+00
    endloop
  endfacet
  facet normal -0.320693e-04  0.247939e+00  0.968775e+00
    outer loop
      vertex -0.782099e+00  1.756535e+00  3.075288e+00
      vertex  0.782478e+00  1.756203e+00  3.075425e+00
      vertex -0.784519e+00  2.026837e+00  3.006109e+00
    endloop
  endfacet
  facet normal  0.321306e-04  0.506335e+00  0.862336e+00
    outer loop
      vertex  0.782478e+00  1.756203e+00  3.075425e+00
      vertex -0.782099e+00  1.756535e+00  3.075288e+00
      vertex  0.777551e+00  1.515462e+00  3.216780e+00
    endloop
  endfacet
  facet normal -0.483912e-04  0.505948e+00  0.862563e+00
    outer loop
      vertex -0.777161e+00  1.515884e+00  3.216445e+00
      vertex  0.777551e+00  1.515462e+00  3.216780e+00
      vertex -0.782099e+00  1.756535e+00  3.075288e+00
    endloop
  endfacet
  facet normal  0.384433e-04  0.704877e+00  0.709329e+00
    outer loop
      vertex  0.777551e+00  1.515462e+00  3.216780e+00
      vertex -0.777161e+00  1.515884e+00  3.216445e+00
      vertex  0.787329e+00  1.357886e+00  3.373367e+00
    endloop
  endfacet
  facet normal -0.155928e-04  0.704608e+00  0.709596e+00
    outer loop
      vertex -0.786973e+00  1.358025e+00  3.373194e+00
      vertex  0.787329e+00  1.357886e+00  3.373367e+00
      vertex -0.777161e+00  1.515884e+00  3.216445e+00
    endloop
  endfacet
  facet normal  0.153204e-04  0.842500e+00  0.538695e+00
    outer loop
      vertex  0.787329e+00  1.357886e+00  3.373367e+00
      vertex -0.786973e+00  1.358025e+00  3.373194e+00
      vertex  0.812449e+00  1.241394e+00  3.555555e+00
    endloop
  endfacet
  facet normal  0.000000e+00  0.842439e+00  0.538790e+00
    outer loop
      vertex -0.812170e+00  1.241394e+00  3.555555e+00
      vertex  0.812449e+00  1.241394e+00  3.555555e+00
      vertex -0.786973e+00  1.358025e+00  3.373194e+00
    endloop
  endfacet
  facet normal  0.237041e-06 -0.292906e-01  0.999570e+00
    outer loop
      vertex  0.784609e+00  2.305747e+00  3.014307e+00
      vertex -0.784232e+00  2.305751e+00  3.014308e+00
      vertex  0.784894e+00  2.026657e+00  3.006129e+00
    endloop
  endfacet
  facet normal -0.161299e-04 -0.293825e-01  0.999568e+00
    outer loop
      vertex  0.784894e+00  2.026657e+00  3.006129e+00
      vertex -0.784232e+00  2.305751e+00  3.014308e+00
      vertex -0.784519e+00  2.026837e+00  3.006109e+00
    endloop
  endfacet
  facet normal  0.799483e+00  0.599629e+00  0.356492e-01
    outer loop
      vertex  0.863768e+00  1.112749e+00  3.742454e+00
      vertex  1.040455e+00  0.983954e+00  1.946373e+00
      vertex  1.101882e+00  1.017769e+00  0.444089e-16
    endloop
  endfacet
  facet normal  0.799796e+00  0.599208e+00  0.357101e-01
    outer loop
      vertex  1.040455e+00  0.983954e+00  1.946373e+00
      vertex  0.863768e+00  1.112749e+00  3.742454e+00
      vertex  0.979897e+00  0.949678e+00  3.877816e+00
    endloop
  endfacet
  facet normal  0.846934e+00  0.530157e+00  0.404314e-01
    outer loop
      vertex  0.863768e+00  1.112749e+00  3.742454e+00
      vertex  1.101882e+00  1.017769e+00  0.444089e-16
      vertex  0.944612e+00  1.269011e+00  0.444089e-16
    endloop
  endfacet
  facet normal  0.908526e+00  0.416186e+00  0.370032e-01
    outer loop
      vertex  0.863768e+00  1.112749e+00  3.742454e+00
      vertex  0.944612e+00  1.269011e+00  0.444089e-16
      vertex  0.812449e+00  1.241394e+00  3.555555e+00
    endloop
  endfacet
  facet normal  0.981967e+00  0.185204e+00  0.379389e-01
    outer loop
      vertex  0.889683e+00  1.560249e+00  0.000000e+00
      vertex  0.812449e+00  1.241394e+00  3.555555e+00
      vertex  0.944612e+00  1.269011e+00  0.444089e-16
    endloop
  endfacet
  facet normal  0.959335e+00  0.278523e+00  0.458160e-01
    outer loop
      vertex  0.812449e+00  1.241394e+00  3.555555e+00
      vertex  0.889683e+00  1.560249e+00  0.000000e+00
      vertex  0.787329e+00  1.357886e+00  3.373367e+00
    endloop
  endfacet
  facet normal  0.994581e+00  0.975176e-01  0.360271e-01
    outer loop
      vertex  0.787329e+00  1.357886e+00  3.373367e+00
      vertex  0.889683e+00  1.560249e+00  0.000000e+00
      vertex  0.777551e+00  1.515462e+00  3.216780e+00
    endloop
  endfacet
  facet normal  0.881944e+00  0.469978e+00  0.359779e-01
    outer loop
      vertex  1.355216e+00  0.642951e+00  0.444089e-16
      vertex  1.136637e+00  0.749383e+00  3.967811e+00
      vertex  1.255029e+00  0.524749e+00  4.000000e+00
    endloop
  endfacet
  facet normal  0.828119e+00  0.559715e+00  0.306058e-01
    outer loop
      vertex  1.136637e+00  0.749383e+00  3.967811e+00
      vertex  1.355216e+00  0.642951e+00  0.444089e-16
      vertex  1.101882e+00  1.017769e+00  0.444089e-16
    endloop
  endfacet
  facet normal  0.779579e+00  0.625297e+00  0.354670e-01
    outer loop
      vertex  1.136637e+00  0.749383e+00  3.967811e+00
      vertex  1.101882e+00  1.017769e+00  0.444089e-16
      vertex  1.040455e+00  0.983954e+00  1.946373e+00
    endloop
  endfacet
  facet normal  0.779219e+00  0.625743e+00  0.355359e-01
    outer loop
      vertex  1.136637e+00  0.749383e+00  3.967811e+00
      vertex  1.040455e+00  0.983954e+00  1.946373e+00
      vertex  0.979897e+00  0.949678e+00  3.877816e+00
    endloop
  endfacet
  facet normal  0.999399e+00 -0.111462e-01  0.328149e-01
    outer loop
      vertex  1.485276e+00  0.209649e+00  0.444089e-16
      vertex  1.353154e+00  0.139407e+00  4.000000e+00
      vertex  1.480231e+00 -0.242723e+00  0.444089e-16
    endloop
  endfacet
  facet normal  0.968435e+00  0.246605e+00  0.363184e-01
    outer loop
      vertex  1.353154e+00  0.139407e+00  4.000000e+00
      vertex  1.485276e+00  0.209649e+00  0.444089e-16
      vertex  1.255029e+00  0.524749e+00  4.000000e+00
    endloop
  endfacet
  facet normal  0.957279e+00  0.287336e+00  0.324677e-01
    outer loop
      vertex  1.255029e+00  0.524749e+00  4.000000e+00
      vertex  1.485276e+00  0.209649e+00  0.444089e-16
      vertex  1.355216e+00  0.642951e+00  0.444089e-16
    endloop
  endfacet
  facet normal  0.950610e+00 -0.308607e+00  0.331919e-01
    outer loop
      vertex  1.480231e+00 -0.242723e+00  0.444089e-16
      vertex  1.335656e+00 -0.257846e+00  4.000000e+00
      vertex  1.340540e+00 -0.673016e+00  0.444089e-16
    endloop
  endfacet
  facet normal  0.998386e+00 -0.439775e-01  0.359192e-01
    outer loop
      vertex  1.335656e+00 -0.257846e+00  4.000000e+00
      vertex  1.480231e+00 -0.242723e+00  0.444089e-16
      vertex  1.353154e+00  0.139407e+00  4.000000e+00
    endloop
  endfacet
  facet normal  0.815352e+00 -0.577989e+00  0.335986e-01
    outer loop
      vertex  1.340540e+00 -0.673016e+00  0.444089e-16
      vertex  1.204029e+00 -0.633068e+00  4.000000e+00
      vertex  1.078909e+00 -1.042091e+00  0.444089e-16
    endloop
  endfacet
  facet normal  0.943029e+00 -0.330812e+00  0.354873e-01
    outer loop
      vertex  1.204029e+00 -0.633068e+00  4.000000e+00
      vertex  1.340540e+00 -0.673016e+00  0.444089e-16
      vertex  1.335656e+00 -0.257846e+00  4.000000e+00
    endloop
  endfacet
  facet normal  0.602182e+00 -0.797611e+00  0.345251e-01
    outer loop
      vertex  0.719138e+00 -1.316373e+00 -0.799360e-14
      vertex  0.969521e+00 -0.954196e+00  4.000000e+00
      vertex  0.652170e+00 -1.193790e+00  4.000000e+00
    endloop
  endfacet
  facet normal  0.605931e+00 -0.794788e+00  0.340349e-01
    outer loop
      vertex  0.969521e+00 -0.954196e+00  4.000000e+00
      vertex  0.719138e+00 -1.316373e+00 -0.799360e-14
      vertex  1.078909e+00 -1.042091e+00  0.444089e-16
    endloop
  endfacet
  facet normal  0.807090e+00 -0.589388e+00  0.350225e-01
    outer loop
      vertex  0.969521e+00 -0.954196e+00  4.000000e+00
      vertex  1.078909e+00 -1.042091e+00  0.444089e-16
      vertex  1.204029e+00 -0.633068e+00  4.000000e+00
    endloop
  endfacet
  facet normal -0.994416e+00  0.105530e+00  0.000000e+00
    outer loop
      vertex -2.482181e+00  3.542509e+00  4.982180e+00
      vertex -2.500000e+00  3.374603e+00 -0.175178e-15
      vertex -2.500000e+00  3.374603e+00  5.000000e+00
    endloop
  endfacet
  facet normal -0.980780e+00  0.195089e+00 -0.306702e-02
    outer loop
      vertex -2.500000e+00  3.374603e+00 -0.175178e-15
      vertex -2.482181e+00  3.542509e+00  4.982180e+00
      vertex -2.439103e+00  3.680750e+00  0.444089e-16
    endloop
  endfacet
  facet normal -0.951342e+00  0.308136e+00  0.324222e-03
    outer loop
      vertex -2.439103e+00  3.680750e+00  0.444089e-16
      vertex -2.482181e+00  3.542509e+00  4.982180e+00
      vertex -2.432153e+00  3.697017e+00  4.932154e+00
    endloop
  endfacet
  facet normal -0.831469e+00  0.555570e+00 -0.660752e-03
    outer loop
      vertex -2.432153e+00  3.697017e+00  4.932154e+00
      vertex -2.265685e+00  3.940289e+00  0.444089e-16
      vertex -2.439103e+00  3.680750e+00  0.444089e-16
    endloop
  endfacet
  facet normal -0.862643e+00  0.505794e+00 -0.416804e-02
    outer loop
      vertex -2.265685e+00  3.940289e+00  0.444089e-16
      vertex -2.432153e+00  3.697017e+00  4.932154e+00
      vertex -2.336848e+00  3.858777e+00  4.836848e+00
    endloop
  endfacet
  facet normal -0.724929e+00  0.688822e+00  0.942552e-03
    outer loop
      vertex -2.265685e+00  3.940289e+00  0.444089e-16
      vertex -2.336848e+00  3.858777e+00  4.836848e+00
      vertex -2.216843e+00  3.985237e+00  4.716843e+00
    endloop
  endfacet
  facet normal -0.555569e+00  0.831467e+00 -0.217043e-02
    outer loop
      vertex -2.216843e+00  3.985237e+00  4.716843e+00
      vertex -2.006146e+00  4.113707e+00  0.444089e-16
      vertex -2.265685e+00  3.940289e+00  0.444089e-16
    endloop
  endfacet
  facet normal -0.497005e+00  0.867746e+00  0.143367e-02
    outer loop
      vertex -2.006146e+00  4.113707e+00  0.444089e-16
      vertex -2.216843e+00  3.985237e+00  4.716843e+00
      vertex -1.967069e+00  4.128708e+00  4.467069e+00
    endloop
  endfacet
  facet normal -0.195090e+00  0.980783e+00 -0.158703e-02
    outer loop
      vertex -1.967069e+00  4.128708e+00  4.467069e+00
      vertex -1.700000e+00  4.174603e+00  0.444089e-16
      vertex -2.006146e+00  4.113707e+00  0.444089e-16
    endloop
  endfacet
  facet normal -0.169364e+00  0.985553e+00  0.000000e+00
    outer loop
      vertex -1.700000e+00  4.174603e+00  0.444089e-16
      vertex -1.967069e+00  4.128708e+00  4.467069e+00
      vertex -1.700000e+00  4.174603e+00  4.199999e+00
    endloop
  endfacet
  facet normal  0.000000e+00  0.105531e+00  0.994415e+00
    outer loop
      vertex  2.482180e+00  3.542509e+00  4.982181e+00
      vertex -2.500000e+00  3.374603e+00  5.000000e+00
      vertex  2.500000e+00  3.374603e+00  5.000000e+00
    endloop
  endfacet
  facet normal -0.191031e-06  0.105537e+00  0.994415e+00
    outer loop
      vertex -2.500000e+00  3.374603e+00  5.000000e+00
      vertex  2.482180e+00  3.542509e+00  4.982181e+00
      vertex -2.482181e+00  3.542509e+00  4.982180e+00
    endloop
  endfacet
  facet normal -0.182762e-06  0.308038e+00  0.951373e+00
    outer loop
      vertex  2.432153e+00  3.697017e+00  4.932154e+00
      vertex -2.482181e+00  3.542509e+00  4.982180e+00
      vertex  2.482180e+00  3.542509e+00  4.982181e+00
    endloop
  endfacet
  facet normal  0.000000e+00  0.308033e+00  0.951375e+00
    outer loop
      vertex -2.482181e+00  3.542509e+00  4.982180e+00
      vertex  2.432153e+00  3.697017e+00  4.932154e+00
      vertex -2.432153e+00  3.697017e+00  4.932154e+00
    endloop
  endfacet
  facet normal  0.000000e+00  0.507624e+00  0.861578e+00
    outer loop
      vertex  2.336848e+00  3.858777e+00  4.836848e+00
      vertex -2.432153e+00  3.697017e+00  4.932154e+00
      vertex  2.432153e+00  3.697017e+00  4.932154e+00
    endloop
  endfacet
  facet normal -0.879030e-07  0.507626e+00  0.861577e+00
    outer loop
      vertex -2.432153e+00  3.697017e+00  4.932154e+00
      vertex  2.336848e+00  3.858777e+00  4.836848e+00
      vertex -2.336848e+00  3.858777e+00  4.836848e+00
    endloop
  endfacet
  facet normal -0.740069e-07  0.688352e+00  0.725375e+00
    outer loop
      vertex  2.216843e+00  3.985237e+00  4.716843e+00
      vertex -2.336848e+00  3.858777e+00  4.836848e+00
      vertex  2.336848e+00  3.858777e+00  4.836848e+00
    endloop
  endfacet
  facet normal  0.000000e+00  0.688351e+00  0.725377e+00
    outer loop
      vertex -2.336848e+00  3.858777e+00  4.836848e+00
      vertex  2.216843e+00  3.985237e+00  4.716843e+00
      vertex -2.216843e+00  3.985237e+00  4.716843e+00
    endloop
  endfacet
  facet normal  0.000000e+00  0.867128e+00  0.498084e+00
    outer loop
      vertex  1.967069e+00  4.128708e+00  4.467069e+00
      vertex -2.216843e+00  3.985237e+00  4.716843e+00
      vertex  2.216843e+00  3.985237e+00  4.716843e+00
    endloop
  endfacet
  facet normal  0.000000e+00  0.867128e+00  0.498084e+00
    outer loop
      vertex -2.216843e+00  3.985237e+00  4.716843e+00
      vertex  1.967069e+00  4.128708e+00  4.467069e+00
      vertex -1.967069e+00  4.128708e+00  4.467069e+00
    endloop
  endfacet
  facet normal  0.000000e+00  0.985553e+00  0.169364e+00
    outer loop
      vertex  1.700000e+00  4.174603e+00  4.199999e+00
      vertex -1.967069e+00  4.128708e+00  4.467069e+00
      vertex  1.967069e+00  4.128708e+00  4.467069e+00
    endloop
  endfacet
  facet normal  0.000000e+00  0.985553e+00  0.169364e+00
    outer loop
      vertex -1.967069e+00  4.128708e+00  4.467069e+00
      vertex  1.700000e+00  4.174603e+00  4.199999e+00
      vertex -1.700000e+00  4.174603e+00  4.199999e+00
    endloop
  endfacet
  facet normal  0.169364e+00  0.985553e+00  0.000000e+00
    outer loop
      vertex  1.967069e+00  4.128708e+00  4.467069e+00
      vertex  1.700000e+00  4.174603e+00  0.444089e-16
      vertex  1.700000e+00  4.174603e+00  4.199999e+00
    endloop
  endfacet
  facet normal  0.195090e+00  0.980783e+00 -0.158703e-02
    outer loop
      vertex  1.700000e+00  4.174603e+00  0.444089e-16
      vertex  1.967069e+00  4.128708e+00  4.467069e+00
      vertex  2.006146e+00  4.113707e+00  0.444089e-16
    endloop
  endfacet
  facet normal  0.497005e+00  0.867746e+00  0.143368e-02
    outer loop
      vertex  2.216843e+00  3.985237e+00  4.716843e+00
      vertex  2.006146e+00  4.113707e+00  0.444089e-16
      vertex  1.967069e+00  4.128708e+00  4.467069e+00
    endloop
  endfacet
  facet normal  0.555569e+00  0.831467e+00 -0.217040e-02
    outer loop
      vertex  2.006146e+00  4.113707e+00  0.444089e-16
      vertex  2.216843e+00  3.985237e+00  4.716843e+00
      vertex  2.265685e+00  3.940289e+00  0.444089e-16
    endloop
  endfacet
  facet normal  0.724930e+00  0.688821e+00  0.942616e-03
    outer loop
      vertex  2.336848e+00  3.858777e+00  4.836848e+00
      vertex  2.265685e+00  3.940289e+00  0.444089e-16
      vertex  2.216843e+00  3.985237e+00  4.716843e+00
    endloop
  endfacet
  facet normal  0.831466e+00  0.555568e+00 -0.287041e-02
    outer loop
      vertex  2.265685e+00  3.940289e+00  0.444089e-16
      vertex  2.336848e+00  3.858777e+00  4.836848e+00
      vertex  2.439103e+00  3.680750e+00  0.444089e-16
    endloop
  endfacet
  facet normal  0.861695e+00  0.507425e+00 -0.459373e-03
    outer loop
      vertex  2.439103e+00  3.680750e+00  0.444089e-16
      vertex  2.336848e+00  3.858777e+00  4.836848e+00
      vertex  2.432153e+00  3.697017e+00  4.932154e+00
    endloop
  endfacet
  facet normal  0.951343e+00  0.308130e+00  0.324242e-03
    outer loop
      vertex  2.482180e+00  3.542509e+00  4.982181e+00
      vertex  2.439103e+00  3.680750e+00  0.444089e-16
      vertex  2.432153e+00  3.697017e+00  4.932154e+00
    endloop
  endfacet
  facet normal  0.980780e+00  0.195089e+00 -0.306683e-02
    outer loop
      vertex  2.439103e+00  3.680750e+00  0.444089e-16
      vertex  2.482180e+00  3.542509e+00  4.982181e+00
      vertex  2.500000e+00  3.374603e+00 -0.175178e-15
    endloop
  endfacet
  facet normal  0.994415e+00  0.105535e+00  0.000000e+00
    outer loop
      vertex  2.500000e+00  3.374603e+00 -0.175178e-15
      vertex  2.482180e+00  3.542509e+00  4.982181e+00
      vertex  2.500000e+00  3.374603e+00  5.000000e+00
    endloop
  endfacet
  facet normal  0.000000e+00  0.000000e+00 -1.000000e+00
    outer loop
      vertex -1.700000e+00  4.174603e+00  0.444089e-16
      vertex -0.889683e+00  4.174603e+00  0.444089e-16
      vertex -2.006146e+00  4.113707e+00  0.444089e-16
    endloop
  endfacet
  facet normal -0.249577e-16  0.457570e-15 -1.000000e+00
    outer loop
      vertex  0.889683e+00  4.174603e+00  0.000000e+00
      vertex -2.006146e+00  4.113707e+00  0.444089e-16
      vertex -0.889683e+00  4.174603e+00  0.444089e-16
    endloop
  endfacet
  facet normal  0.548043e-16 -0.333538e-14 -1.000000e+00
    outer loop
      vertex  1.700000e+00  4.174603e+00  0.444089e-16
      vertex -2.006146e+00  4.113707e+00  0.444089e-16
      vertex  0.889683e+00  4.174603e+00  0.000000e+00
    endloop
  endfacet
  facet normal  0.000000e+00  0.000000e+00 -1.000000e+00
    outer loop
      vertex  2.006146e+00  4.113707e+00  0.444089e-16
      vertex -2.006146e+00  4.113707e+00  0.444089e-16
      vertex  1.700000e+00  4.174603e+00  0.444089e-16
    endloop
  endfacet
  facet normal  0.000000e+00  0.000000e+00 -1.000000e+00
    outer loop
      vertex -2.006146e+00  4.113707e+00  0.444089e-16
      vertex  2.006146e+00  4.113707e+00  0.444089e-16
      vertex -2.265685e+00  3.940289e+00  0.444089e-16
    endloop
  endfacet
  facet normal  0.000000e+00  0.000000e+00 -1.000000e+00
    outer loop
      vertex  2.265685e+00  3.940289e+00  0.444089e-16
      vertex -2.265685e+00  3.940289e+00  0.444089e-16
      vertex  2.006146e+00  4.113707e+00  0.444089e-16
    endloop
  endfacet
  facet normal  0.000000e+00  0.000000e+00 -1.000000e+00
    outer loop
      vertex -2.265685e+00  3.940289e+00  0.444089e-16
      vertex  2.265685e+00  3.940289e+00  0.444089e-16
      vertex -2.439103e+00  3.680750e+00  0.444089e-16
    endloop
  endfacet
  facet normal  0.000000e+00  0.000000e+00 -1.000000e+00
    outer loop
      vertex  2.439103e+00  3.680750e+00  0.444089e-16
      vertex -2.439103e+00  3.680750e+00  0.444089e-16
      vertex  2.265685e+00  3.940289e+00  0.444089e-16
    endloop
  endfacet
  facet normal  0.000000e+00  0.717261e-15 -1.000000e+00
    outer loop
      vertex -2.439103e+00  3.680750e+00  0.444089e-16
      vertex  2.439103e+00  3.680750e+00  0.444089e-16
      vertex -2.500000e+00  3.374603e+00 -0.175178e-15
    endloop
  endfacet
  facet normal  0.000000e+00  0.717261e-15 -1.000000e+00
    outer loop
      vertex  2.500000e+00  3.374603e+00 -0.175178e-15
      vertex -2.500000e+00  3.374603e+00 -0.175178e-15
      vertex  2.439103e+00  3.680750e+00  0.444089e-16
    endloop
  endfacet
  facet normal  0.000000e+00 -0.467636e-15 -1.000000e+00
    outer loop
      vertex -2.500000e+00  3.374603e+00 -0.175178e-15
      vertex  2.500000e+00  3.374603e+00 -0.175178e-15
      vertex -2.500000e+00  3.000000e+00  0.000000e+00
    endloop
  endfacet
  facet normal  0.000000e+00 -0.467636e-15 -1.000000e+00
    outer loop
      vertex -1.689195e+00  3.000000e+00  0.000000e+00
      vertex -2.500000e+00  3.000000e+00  0.000000e+00
      vertex  2.500000e+00  3.374603e+00 -0.175178e-15
    endloop
  endfacet
  facet normal  0.000000e+00 -0.467636e-15 -1.000000e+00
    outer loop
      vertex  1.689195e+00  3.000000e+00  0.000000e+00
      vertex -1.689195e+00  3.000000e+00  0.000000e+00
      vertex  2.500000e+00  3.374603e+00 -0.175178e-15
    endloop
  endfacet
  facet normal  0.000000e+00 -0.467636e-15 -1.000000e+00
    outer loop
      vertex  2.500000e+00  3.000000e+00  0.000000e+00
      vertex  1.689195e+00  3.000000e+00  0.000000e+00
      vertex  2.500000e+00  3.374603e+00 -0.175178e-15
    endloop
  endfacet
  facet normal  0.000000e+00 -0.729965e-15 -1.000000e+00
    outer loop
      vertex -1.689195e+00  3.000000e+00  0.000000e+00
      vertex  1.689195e+00  3.000000e+00  0.000000e+00
      vertex -1.383170e+00  2.939162e+00  0.444089e-16
    endloop
  endfacet
  facet normal  0.547535e-20 -0.730241e-15 -1.000000e+00
    outer loop
      vertex  1.383220e+00  2.939183e+00  0.444089e-16
      vertex -1.383170e+00  2.939162e+00  0.444089e-16
      vertex  1.689195e+00  3.000000e+00  0.000000e+00
    endloop
  endfacet
  facet normal  0.000000e+00  0.000000e+00 -1.000000e+00
    outer loop
      vertex -1.383170e+00  2.939162e+00  0.444089e-16
      vertex  1.383220e+00  2.939183e+00  0.444089e-16
      vertex -1.123776e+00  2.765868e+00  0.444089e-16
    endloop
  endfacet
  facet normal  0.000000e+00  0.000000e+00 -1.000000e+00
    outer loop
      vertex  1.123815e+00  2.765905e+00  0.444089e-16
      vertex -1.123776e+00  2.765868e+00  0.444089e-16
      vertex  1.383220e+00  2.939183e+00  0.444089e-16
    endloop
  endfacet
  facet normal  0.000000e+00  0.000000e+00 -1.000000e+00
    outer loop
      vertex -1.123776e+00  2.765868e+00  0.444089e-16
      vertex  1.123815e+00  2.765905e+00  0.444089e-16
      vertex -0.950499e+00  2.506463e+00  0.444089e-16
    endloop
  endfacet
  facet normal  0.000000e+00  0.000000e+00 -1.000000e+00
    outer loop
      vertex  0.950520e+00  2.506511e+00  0.444089e-16
      vertex -0.950499e+00  2.506463e+00  0.444089e-16
      vertex  1.123815e+00  2.765905e+00  0.444089e-16
    endloop
  endfacet
  facet normal -0.367695e-20  0.145138e-15 -1.000000e+00
    outer loop
      vertex -0.950499e+00  2.506463e+00  0.444089e-16
      vertex  0.950520e+00  2.506511e+00  0.444089e-16
      vertex -0.889683e+00  2.200489e+00  0.000000e+00
    endloop
  endfacet
  facet normal  0.272216e-21  0.145114e-15 -1.000000e+00
    outer loop
      vertex  0.889683e+00  2.200485e+00  0.000000e+00
      vertex -0.889683e+00  2.200489e+00  0.000000e+00
      vertex  0.950520e+00  2.506511e+00  0.444089e-16
    endloop
  endfacet
  facet normal  0.112358e-21 -0.152463e-15 -1.000000e+00
    outer loop
      vertex -0.889683e+00  1.560248e+00  0.000000e+00
      vertex  0.889683e+00  1.560249e+00  0.000000e+00
      vertex -0.944627e+00  1.268972e+00  0.444089e-16
    endloop
  endfacet
  facet normal  0.312699e-20 -0.152482e-15 -1.000000e+00
    outer loop
      vertex  0.944612e+00  1.269011e+00  0.444089e-16
      vertex -0.944627e+00  1.268972e+00  0.444089e-16
      vertex  0.889683e+00  1.560249e+00  0.000000e+00
    endloop
  endfacet
  facet normal  0.000000e+00  0.000000e+00 -1.000000e+00
    outer loop
      vertex -0.944627e+00  1.268972e+00  0.444089e-16
      vertex  0.944612e+00  1.269011e+00  0.444089e-16
      vertex -1.101882e+00  1.017769e+00  0.444089e-16
    endloop
  endfacet
  facet normal  0.000000e+00  0.000000e+00 -1.000000e+00
    outer loop
      vertex  1.101882e+00  1.017769e+00  0.444089e-16
      vertex -1.101882e+00  1.017769e+00  0.444089e-16
      vertex  0.944612e+00  1.269011e+00  0.444089e-16
    endloop
  endfacet
  facet normal  0.000000e+00  0.000000e+00 -1.000000e+00
    outer loop
      vertex  1.101882e+00  1.017769e+00  0.444089e-16
      vertex  1.355216e+00  0.642951e+00  0.444089e-16
      vertex -1.101882e+00  1.017769e+00  0.444089e-16
    endloop
  endfacet
  facet normal  0.000000e+00  0.000000e+00 -1.000000e+00
    outer loop
      vertex -1.361699e+00  0.629105e+00  0.444089e-16
      vertex -1.101882e+00  1.017769e+00  0.444089e-16
      vertex  1.355216e+00  0.642951e+00  0.444089e-16
    endloop
  endfacet
  facet normal  0.000000e+00  0.000000e+00 -1.000000e+00
    outer loop
      vertex  1.355216e+00  0.642951e+00  0.444089e-16
      vertex  1.485276e+00  0.209649e+00  0.444089e-16
      vertex -1.361699e+00  0.629105e+00  0.444089e-16
    endloop
  endfacet
  facet normal  0.000000e+00  0.000000e+00 -1.000000e+00
    outer loop
      vertex -1.489241e+00  0.179330e+00  0.444089e-16
      vertex -1.361699e+00  0.629105e+00  0.444089e-16
      vertex  1.485276e+00  0.209649e+00  0.444089e-16
    endloop
  endfacet
  facet normal  0.000000e+00  0.000000e+00 -1.000000e+00
    outer loop
      vertex  1.485276e+00  0.209649e+00  0.444089e-16
      vertex  1.480231e+00 -0.242723e+00  0.444089e-16
      vertex -1.489241e+00  0.179330e+00  0.444089e-16
    endloop
  endfacet
  facet normal  0.000000e+00  0.000000e+00 -1.000000e+00
    outer loop
      vertex -1.472118e+00 -0.287865e+00  0.444089e-16
      vertex -1.489241e+00  0.179330e+00  0.444089e-16
      vertex  1.480231e+00 -0.242723e+00  0.444089e-16
    endloop
  endfacet
  facet normal  0.000000e+00  0.000000e+00 -1.000000e+00
    outer loop
      vertex  1.480231e+00 -0.242723e+00  0.444089e-16
      vertex  1.340540e+00 -0.673016e+00  0.444089e-16
      vertex -1.472118e+00 -0.287865e+00  0.444089e-16
    endloop
  endfacet
  facet normal  0.000000e+00  0.000000e+00 -1.000000e+00
    outer loop
      vertex -1.311994e+00 -0.727097e+00  0.444089e-16
      vertex -1.472118e+00 -0.287865e+00  0.444089e-16
      vertex  1.340540e+00 -0.673016e+00  0.444089e-16
    endloop
  endfacet
  facet normal  0.000000e+00  0.000000e+00 -1.000000e+00
    outer loop
      vertex  1.340540e+00 -0.673016e+00  0.444089e-16
      vertex  1.078909e+00 -1.042091e+00  0.444089e-16
      vertex -1.311994e+00 -0.727097e+00  0.444089e-16
    endloop
  endfacet
  facet normal  0.000000e+00  0.000000e+00 -1.000000e+00
    outer loop
      vertex -1.024423e+00 -1.095699e+00  0.444089e-16
      vertex -1.311994e+00 -0.727097e+00  0.444089e-16
      vertex  1.078909e+00 -1.042091e+00  0.444089e-16
    endloop
  endfacet
  facet normal -0.772749e-15  0.303191e-13 -1.000000e+00
    outer loop
      vertex  1.078909e+00 -1.042091e+00  0.444089e-16
      vertex  0.719138e+00 -1.316373e+00 -0.799360e-14
      vertex -1.024423e+00 -1.095699e+00  0.444089e-16
    endloop
  endfacet
  facet normal -0.566959e-14 -0.837105e-14 -1.000000e+00
    outer loop
      vertex -0.637340e+00 -1.357865e+00  0.444089e-16
      vertex -1.024423e+00 -1.095699e+00  0.444089e-16
      vertex  0.719138e+00 -1.316373e+00 -0.799360e-14
    endloop
  endfacet
  facet normal -0.477230e-14 -0.377062e-13 -1.000000e+00
    outer loop
      vertex  0.719138e+00 -1.316373e+00 -0.799360e-14
      vertex  0.278944e+00 -1.473835e+00  0.444089e-16
      vertex -0.637340e+00 -1.357865e+00  0.444089e-16
    endloop
  endfacet
  facet normal  0.000000e+00  0.000000e+00 -1.000000e+00
    outer loop
      vertex -0.188345e+00 -1.488128e+00  0.444089e-16
      vertex -0.637340e+00 -1.357865e+00  0.444089e-16
      vertex  0.278944e+00 -1.473835e+00  0.444089e-16
    endloop
  endfacet
  facet normal  0.000000e+00  0.000000e+00 -1.000000e+00
    outer loop
      vertex -0.889683e+00  2.200489e+00  0.000000e+00
      vertex  0.889683e+00  2.200485e+00  0.000000e+00
      vertex -0.889683e+00  1.560248e+00  0.000000e+00
    endloop
  endfacet
  facet normal  0.000000e+00  0.000000e+00 -1.000000e+00
    outer loop
      vertex -0.889683e+00  1.560248e+00  0.000000e+00
      vertex  0.889683e+00  2.200485e+00  0.000000e+00
      vertex  0.889683e+00  1.560249e+00  0.000000e+00
    endloop
  endfacet
  facet normal  0.000000e+00  0.000000e+00  1.000000e+00
    outer loop
      vertex  2.500000e+00  3.174603e+00  5.000000e+00
      vertex  2.500000e+00  3.374603e+00  5.000000e+00
      vertex -2.500000e+00  3.174603e+00  5.000000e+00
    endloop
  endfacet
  facet normal  0.000000e+00  0.000000e+00  1.000000e+00
    outer loop
      vertex -2.500000e+00  3.174603e+00  5.000000e+00
      vertex  2.500000e+00  3.374603e+00  5.000000e+00
      vertex -2.500000e+00  3.374603e+00  5.000000e+00
    endloop
  endfacet
  facet normal -1.000000e+00  0.000000e+00  0.000000e+00
    outer loop
      vertex -2.500000e+00  3.174603e+00  5.000000e+00
      vertex -2.500000e+00  3.374603e+00  5.000000e+00
      vertex -2.500000e+00  3.000000e+00  0.000000e+00
    endloop
  endfacet
  facet normal -1.000000e+00  0.000000e+00  0.000000e+00
    outer loop
      vertex -2.500000e+00  3.374603e+00 -0.175178e-15
      vertex -2.500000e+00  3.000000e+00  0.000000e+00
      vertex -2.500000e+00  3.374603e+00  5.000000e+00
    endloop
  endfacet
  facet normal  0.000000e+00  1.000000e+00  0.000000e+00
    outer loop
      vertex  0.889683e+00  4.174603e+00  0.000000e+00
      vertex  1.700000e+00  4.174603e+00  4.199999e+00
      vertex  1.700000e+00  4.174603e+00  0.444089e-16
    endloop
  endfacet
  facet normal  0.000000e+00  1.000000e+00  0.000000e+00
    outer loop
      vertex  1.700000e+00  4.174603e+00  4.199999e+00
      vertex  0.889683e+00  4.174603e+00  0.000000e+00
      vertex -1.700000e+00  4.174603e+00  4.199999e+00
    endloop
  endfacet
  facet normal  0.000000e+00  1.000000e+00  0.000000e+00
    outer loop
      vertex -1.700000e+00  4.174603e+00  4.199999e+00
      vertex  0.889683e+00  4.174603e+00  0.000000e+00
      vertex -0.889683e+00  4.174603e+00  0.444089e-16
    endloop
  endfacet
  facet normal  0.000000e+00  1.000000e+00  0.000000e+00
    outer loop
      vertex -1.700000e+00  4.174603e+00  4.199999e+00
      vertex -0.889683e+00  4.174603e+00  0.444089e-16
      vertex -1.700000e+00  4.174603e+00  0.444089e-16
    endloop
  endfacet
  facet normal  1.000000e+00  0.000000e+00  0.000000e+00
    outer loop
      vertex  2.500000e+00  3.000000e+00  0.000000e+00
      vertex  2.500000e+00  3.374603e+00  5.000000e+00
      vertex  2.500000e+00  3.174603e+00  5.000000e+00
    endloop
  endfacet
  facet normal  1.000000e+00  0.000000e+00  0.000000e+00
    outer loop
      vertex  2.500000e+00  3.374603e+00  5.000000e+00
      vertex  2.500000e+00  3.000000e+00  0.000000e+00
      vertex  2.500000e+00  3.374603e+00 -0.175178e-15
    endloop
  endfacet
  facet normal -0.999388e+00 -0.201195e-08  0.349618e-01
    outer loop
      vertex -0.784232e+00  2.305751e+00  3.014308e+00
      vertex -0.889683e+00  2.200489e+00  0.000000e+00
      vertex -0.784519e+00  2.026837e+00  3.006109e+00
    endloop
  endfacet
  facet normal -0.999388e+00 -0.163003e-06  0.349618e-01
    outer loop
      vertex -0.777161e+00  1.515884e+00  3.216445e+00
      vertex -0.782099e+00  1.756535e+00  3.075288e+00
      vertex -0.889683e+00  1.560248e+00  0.000000e+00
    endloop
  endfacet
  facet normal -0.999388e+00  0.102600e-06  0.349617e-01
    outer loop
      vertex -0.784519e+00  2.026837e+00  3.006109e+00
      vertex -0.889683e+00  1.560248e+00  0.000000e+00
      vertex -0.782099e+00  1.756535e+00  3.075288e+00
    endloop
  endfacet
  facet normal -0.999388e+00  0.000000e+00  0.349618e-01
    outer loop
      vertex -0.889683e+00  2.200489e+00  0.000000e+00
      vertex -0.889683e+00  1.560248e+00  0.000000e+00
      vertex -0.784519e+00  2.026837e+00  3.006109e+00
    endloop
  endfacet
  facet normal -0.393544e-01 -0.998773e+00  0.300591e-01
    outer loop
      vertex -1.486280e+00  3.137201e+00  4.000000e+00
      vertex -1.549262e+00  3.139683e+00  4.000000e+00
      vertex -1.495608e+00  3.136270e+00  3.956875e+00
    endloop
  endfacet
  facet normal -0.345103e-01 -0.998752e+00  0.360844e-01
    outer loop
      vertex -1.549262e+00  3.139683e+00  4.000000e+00
      vertex -1.689195e+00  3.000000e+00  0.000000e+00
      vertex -1.495608e+00  3.136270e+00  3.956875e+00
    endloop
  endfacet
  facet normal -0.194799e+00 -0.979887e+00  0.432768e-01
    outer loop
      vertex -1.383170e+00  2.939162e+00  0.444089e-16
      vertex -1.495608e+00  3.136270e+00  3.956875e+00
      vertex -1.689195e+00  3.000000e+00  0.000000e+00
    endloop
  endfacet
  facet normal -0.211470e-01 -0.998567e+00  0.491418e-01
    outer loop
      vertex -1.490628e+00  3.135097e+00  3.935163e+00
      vertex -1.495608e+00  3.136270e+00  3.956875e+00
      vertex -1.383170e+00  2.939162e+00  0.444089e-16
    endloop
  endfacet
  facet normal -0.660302e-01 -0.996671e+00  0.478217e-01
    outer loop
      vertex -1.475764e+00  3.132651e+00  3.904714e+00
      vertex -1.490628e+00  3.135097e+00  3.935163e+00
      vertex -1.383170e+00  2.939162e+00  0.444089e-16
    endloop
  endfacet
  facet normal -0.124896e+00 -0.991095e+00  0.461495e-01
    outer loop
      vertex -1.417155e+00  3.121477e+00  3.823363e+00
      vertex -1.475764e+00  3.132651e+00  3.904714e+00
      vertex -1.383170e+00  2.939162e+00  0.444089e-16
    endloop
  endfacet
  facet normal -0.253634e+00 -0.966306e+00  0.438231e-01
    outer loop
      vertex -1.292127e+00  3.081783e+00  3.671724e+00
      vertex -1.417155e+00  3.121477e+00  3.823363e+00
      vertex -1.383170e+00  2.939162e+00  0.444089e-16
    endloop
  endfacet
  facet normal -0.500092e+00 -0.864749e+00  0.459894e-01
    outer loop
      vertex -1.292127e+00  3.081783e+00  3.671724e+00
      vertex -1.383170e+00  2.939162e+00  0.444089e-16
      vertex -1.053702e+00  2.928866e+00  3.389045e+00
    endloop
  endfacet
  facet normal -0.554776e+00 -0.830409e+00  0.514099e-01
    outer loop
      vertex -1.123776e+00  2.765868e+00  0.444089e-16
      vertex -1.053702e+00  2.928866e+00  3.389045e+00
      vertex -1.383170e+00  2.939162e+00  0.444089e-16
    endloop
  endfacet
  facet normal -0.726660e+00 -0.685319e+00  0.479857e-01
    outer loop
      vertex -1.053702e+00  2.928866e+00  3.389045e+00
      vertex -1.123776e+00  2.765868e+00  0.444089e-16
      vertex -0.937452e+00  2.795686e+00  3.247406e+00
    endloop
  endfacet
  facet normal -0.830388e+00 -0.554684e+00  0.527378e-01
    outer loop
      vertex -0.950499e+00  2.506463e+00  0.444089e-16
      vertex -0.937452e+00  2.795686e+00  3.247406e+00
      vertex -1.123776e+00  2.765868e+00  0.444089e-16
    endloop
  endfacet
  facet normal -0.863066e+00 -0.502780e+00  0.482463e-01
    outer loop
      vertex -0.845831e+00  2.626966e+00  3.128145e+00
      vertex -0.937452e+00  2.795686e+00  3.247406e+00
      vertex -0.950499e+00  2.506463e+00  0.444089e-16
    endloop
  endfacet
  facet normal -0.951893e+00 -0.303320e+00  0.435349e-01
    outer loop
      vertex -0.845831e+00  2.626966e+00  3.128145e+00
      vertex -0.950499e+00  2.506463e+00  0.444089e-16
      vertex -0.800186e+00  2.473698e+00  3.058315e+00
    endloop
  endfacet
  facet normal -0.979772e+00 -0.194741e+00  0.460683e-01
    outer loop
      vertex -0.889683e+00  2.200489e+00  0.000000e+00
      vertex -0.800186e+00  2.473698e+00  3.058315e+00
      vertex -0.950499e+00  2.506463e+00  0.444089e-16
    endloop
  endfacet
  facet normal -0.993786e+00 -0.104465e+00  0.384138e-01
    outer loop
      vertex -0.784232e+00  2.305751e+00  3.014308e+00
      vertex -0.800186e+00  2.473698e+00  3.058315e+00
      vertex -0.889683e+00  2.200489e+00  0.000000e+00
    endloop
  endfacet
  facet normal  0.000000e+00 -0.999390e+00  0.348994e-01
    outer loop
      vertex -1.549262e+00  3.139683e+00  4.000000e+00
      vertex -2.500000e+00  3.000000e+00  0.000000e+00
      vertex -1.689195e+00  3.000000e+00  0.000000e+00
    endloop
  endfacet
  facet normal -0.150371e-06 -0.999390e+00  0.348995e-01
    outer loop
      vertex -2.500000e+00  3.000000e+00  0.000000e+00
      vertex -1.549262e+00  3.139683e+00  4.000000e+00
      vertex -2.500000e+00  3.174603e+00  5.000000e+00
    endloop
  endfacet
  facet normal  0.000000e+00 -0.999390e+00  0.348996e-01
    outer loop
      vertex -2.500000e+00  3.174603e+00  5.000000e+00
      vertex -1.549262e+00  3.139683e+00  4.000000e+00
      vertex -0.749750e+00  3.139683e+00  4.000000e+00
    endloop
  endfacet
  facet normal  0.000000e+00 -0.999390e+00  0.348996e-01
    outer loop
      vertex -2.500000e+00  3.174603e+00  5.000000e+00
      vertex -0.749750e+00  3.139683e+00  4.000000e+00
      vertex  0.750249e+00  3.139683e+00  4.000000e+00
    endloop
  endfacet
  facet normal  0.000000e+00 -0.999390e+00  0.348996e-01
    outer loop
      vertex -2.500000e+00  3.174603e+00  5.000000e+00
      vertex  0.750249e+00  3.139683e+00  4.000000e+00
      vertex  1.549762e+00  3.139683e+00  4.000000e+00
    endloop
  endfacet
  facet normal  0.000000e+00 -0.999390e+00  0.348996e-01
    outer loop
      vertex -2.500000e+00  3.174603e+00  5.000000e+00
      vertex  1.549762e+00  3.139683e+00  4.000000e+00
      vertex  2.500000e+00  3.174603e+00  5.000000e+00
    endloop
  endfacet
  facet normal  0.000000e+00 -0.999390e+00  0.348994e-01
    outer loop
      vertex  2.500000e+00  3.000000e+00  0.000000e+00
      vertex  1.549762e+00  3.139683e+00  4.000000e+00
      vertex  1.689195e+00  3.000000e+00  0.000000e+00
    endloop
  endfacet
  facet normal  0.150450e-06 -0.999390e+00  0.348995e-01
    outer loop
      vertex  1.549762e+00  3.139683e+00  4.000000e+00
      vertex  2.500000e+00  3.000000e+00  0.000000e+00
      vertex  2.500000e+00  3.174603e+00  5.000000e+00
    endloop
  endfacet
  facet normal  0.000000e+00  0.000000e+00  1.000000e+00
    outer loop
      vertex -1.486280e+00  3.137201e+00  4.000000e+00
      vertex -0.749750e+00  3.139683e+00  4.000000e+00
      vertex -1.549262e+00  3.139683e+00  4.000000e+00
    endloop
  endfacet
  facet normal  0.000000e+00  0.000000e+00  1.000000e+00
    outer loop
      vertex -0.749750e+00  3.139683e+00  4.000000e+00
      vertex -1.486280e+00  3.137201e+00  4.000000e+00
      vertex  0.750249e+00  3.139683e+00  4.000000e+00
    endloop
  endfacet
  facet normal  0.000000e+00  0.000000e+00  1.000000e+00
    outer loop
      vertex  0.750249e+00  3.139683e+00  4.000000e+00
      vertex -1.486280e+00  3.137201e+00  4.000000e+00
      vertex  1.549762e+00  3.139683e+00  4.000000e+00
    endloop
  endfacet
  facet normal  0.000000e+00  0.000000e+00  1.000000e+00
    outer loop
      vertex  1.549762e+00  3.139683e+00  4.000000e+00
      vertex -1.486280e+00  3.137201e+00  4.000000e+00
      vertex -0.749750e+00  3.137201e+00  4.000000e+00
    endloop
  endfacet
  facet normal  0.000000e+00  0.000000e+00  1.000000e+00
    outer loop
      vertex  1.549762e+00  3.139683e+00  4.000000e+00
      vertex -0.749750e+00  3.137201e+00  4.000000e+00
      vertex  0.750249e+00  3.137201e+00  4.000000e+00
    endloop
  endfacet
  facet normal  0.000000e+00  0.000000e+00  1.000000e+00
    outer loop
      vertex  1.549762e+00  3.139683e+00  4.000000e+00
      vertex  0.750249e+00  3.137201e+00  4.000000e+00
      vertex  1.486779e+00  3.137201e+00  4.000000e+00
    endloop
  endfacet
  facet normal  0.999392e+00  0.000000e+00  0.348371e-01
    outer loop
      vertex  0.889683e+00  2.200485e+00  0.000000e+00
      vertex  0.784894e+00  2.026657e+00  3.006129e+00
      vertex  0.889683e+00  1.560249e+00  0.000000e+00
    endloop
  endfacet
  facet normal  0.999392e+00 -0.256802e-07  0.348371e-01
    outer loop
      vertex  0.782478e+00  1.756203e+00  3.075425e+00
      vertex  0.889683e+00  1.560249e+00  0.000000e+00
      vertex  0.784894e+00  2.026657e+00  3.006129e+00
    endloop
  endfacet
  facet normal  0.999392e+00  0.177129e-07  0.348371e-01
    outer loop
      vertex  0.777551e+00  1.515462e+00  3.216780e+00
      vertex  0.889683e+00  1.560249e+00  0.000000e+00
      vertex  0.782478e+00  1.756203e+00  3.075425e+00
    endloop
  endfacet
  facet normal  0.999392e+00  0.336553e-07  0.348371e-01
    outer loop
      vertex  0.784609e+00  2.305747e+00  3.014307e+00
      vertex  0.784894e+00  2.026657e+00  3.006129e+00
      vertex  0.889683e+00  2.200485e+00  0.000000e+00
    endloop
  endfacet
  facet normal  0.345128e-01 -0.998752e+00  0.360802e-01
    outer loop
      vertex  1.549762e+00  3.139683e+00  4.000000e+00
      vertex  1.496102e+00  3.136270e+00  3.956872e+00
      vertex  1.689195e+00  3.000000e+00  0.000000e+00
    endloop
  endfacet
  facet normal  0.194766e+00 -0.979895e+00  0.432511e-01
    outer loop
      vertex  1.383220e+00  2.939183e+00  0.444089e-16
      vertex  1.689195e+00  3.000000e+00  0.000000e+00
      vertex  1.496102e+00  3.136270e+00  3.956872e+00
    endloop
  endfacet
  facet normal  0.211125e-01 -0.998568e+00  0.491352e-01
    outer loop
      vertex  1.491118e+00  3.135097e+00  3.935160e+00
      vertex  1.383220e+00  2.939183e+00  0.444089e-16
      vertex  1.496102e+00  3.136270e+00  3.956872e+00
    endloop
  endfacet
  facet normal  0.660580e-01 -0.996669e+00  0.478083e-01
    outer loop
      vertex  1.476250e+00  3.132651e+00  3.904712e+00
      vertex  1.383220e+00  2.939183e+00  0.444089e-16
      vertex  1.491118e+00  3.135097e+00  3.935160e+00
    endloop
  endfacet
  facet normal  0.124902e+00 -0.991096e+00  0.461301e-01
    outer loop
      vertex  1.417632e+00  3.121477e+00  3.823363e+00
      vertex  1.383220e+00  2.939183e+00  0.444089e-16
      vertex  1.476250e+00  3.132651e+00  3.904712e+00
    endloop
  endfacet
  facet normal  0.253636e+00 -0.966307e+00  0.437896e-01
    outer loop
      vertex  1.292589e+00  3.081784e+00  3.671727e+00
      vertex  1.383220e+00  2.939183e+00  0.444089e-16
      vertex  1.417632e+00  3.121477e+00  3.823363e+00
    endloop
  endfacet
  facet normal  0.500088e+00 -0.864755e+00  0.459289e-01
    outer loop
      vertex  1.292589e+00  3.081784e+00  3.671727e+00
      vertex  1.054132e+00  2.928871e+00  3.389050e+00
      vertex  1.383220e+00  2.939183e+00  0.444089e-16
    endloop
  endfacet
  facet normal  0.554724e+00 -0.830448e+00  0.513386e-01
    outer loop
      vertex  1.123815e+00  2.765905e+00  0.444089e-16
      vertex  1.383220e+00  2.939183e+00  0.444089e-16
      vertex  1.054132e+00  2.928871e+00  3.389050e+00
    endloop
  endfacet
  facet normal  0.726656e+00 -0.685329e+00  0.478955e-01
    outer loop
      vertex  1.054132e+00  2.928871e+00  3.389050e+00
      vertex  0.937863e+00  2.795691e+00  3.247411e+00
      vertex  1.123815e+00  2.765905e+00  0.444089e-16
    endloop
  endfacet
  facet normal  0.830356e+00 -0.554741e+00  0.526358e-01
    outer loop
      vertex  0.950520e+00  2.506511e+00  0.444089e-16
      vertex  1.123815e+00  2.765905e+00  0.444089e-16
      vertex  0.937863e+00  2.795691e+00  3.247411e+00
    endloop
  endfacet
  facet normal  0.863067e+00 -0.502789e+00  0.481370e-01
    outer loop
      vertex  0.846224e+00  2.626970e+00  3.128148e+00
      vertex  0.950520e+00  2.506511e+00  0.444089e-16
      vertex  0.937863e+00  2.795691e+00  3.247411e+00
    endloop
  endfacet
  facet normal  0.951896e+00 -0.303328e+00  0.434178e-01
    outer loop
      vertex  0.846224e+00  2.626970e+00  3.128148e+00
      vertex  0.800569e+00  2.473700e+00  3.058316e+00
      vertex  0.950520e+00  2.506511e+00  0.444089e-16
    endloop
  endfacet
  facet normal  0.979770e+00 -0.194776e+00  0.459491e-01
    outer loop
      vertex  0.889683e+00  2.200485e+00  0.000000e+00
      vertex  0.950520e+00  2.506511e+00  0.444089e-16
      vertex  0.800569e+00  2.473700e+00  3.058316e+00
    endloop
  endfacet
  facet normal  0.993790e+00 -0.104468e+00  0.382900e-01
    outer loop
      vertex  0.784609e+00  2.305747e+00  3.014307e+00
      vertex  0.889683e+00  2.200485e+00  0.000000e+00
      vertex  0.800569e+00  2.473700e+00  3.058316e+00
    endloop
  endfacet
  facet normal  0.393545e-01 -0.998773e+00  0.300577e-01
    outer loop
      vertex  1.486779e+00  3.137201e+00  4.000000e+00
      vertex  1.496102e+00  3.136270e+00  3.956872e+00
      vertex  1.549762e+00  3.139683e+00  4.000000e+00
    endloop
  endfacet
endsolid CATIA STL
