# Rhino

v -7.206162452697754 8.801032066345215 13
v -6.827227592468262 9.12723445892334 13
v -10.01150703430176 12.0598726272583 13
v -9.82330322265625 12.22444248199463 13
v -9.632572174072266 12.38607501983643 13
vt 0 0
vt 0 1
vt 0.999099612236023 0
vt 0.9995497465133667 0.5
vt 0.999099612236023 1
vn 3.50062390540144e-15 -4.066515394275487e-15 -1
vn 3.50062390540144e-15 -4.066515394275487e-15 -1
vn 3.476715765190477e-15 -4.038742454484439e-15 -1
vn 3.476715765190477e-15 -4.038742454484439e-15 -1
vn 3.476715765190477e-15 -4.038742454484439e-15 -1
f 3/3/3 4/4/4 1/1/1
f 4/4/4 5/5/5 2/2/2
f 2/2/2 1/1/1 4/4/4
