solid (c) Fraunhofer IGD 2007
  facet normal  0.010093 -0.000093 -0.999949
    outer loop
      vertex  0.000000 0.000000 0.000000
      vertex  -15.499209 2.000000 -0.156629
      vertex  -13.999275 14.000000 -0.142600
    endloop
  endfacet
  facet normal  0.010093 -0.000093 -0.999949
    outer loop
      vertex  0.000000 0.000000 0.000000
      vertex  -13.999275 14.000000 -0.142600
      vertex  13.999301 14.000000 0.140006
    endloop
  endfacet
  facet normal  0.010093 -0.000093 -0.999949
    outer loop
      vertex  0.000000 0.000000 0.000000
      vertex  13.999301 14.000000 0.140006
      vertex  15.499213 2.000000 0.156258
    endloop
  endfacet
  facet normal  0.127964 -0.991778 0.001383
    outer loop
      vertex  0.000000 0.000000 0.000000
      vertex  15.499213 2.000000 0.156258
      vertex  15.479028 2.000185 2.156156
    endloop
  endfacet
  facet normal  0.141362 -0.027222 -0.989584
    outer loop
      vertex  0.000000 0.000000 0.000000
      vertex  15.479028 2.000185 2.156156
      vertex  18.468760 -19.999722 3.188422
    endloop
  endfacet
  facet normal  0.009981 -0.148432 -0.988872
    outer loop
      vertex  0.000000 0.000000 0.000000
      vertex  18.468760 -19.999722 3.188422
      vertex  -18.529358 -19.999722 2.814978
    endloop
  endfacet
  facet normal  -0.121358 -0.027222 -0.992235
    outer loop
      vertex  0.000000 0.000000 0.000000
      vertex  -18.529358 -19.999722 2.814978
      vertex  -15.519396 2.000185 1.843270
    endloop
  endfacet
  facet normal  -0.127966 -0.991778 -0.001200
    outer loop
      vertex  0.000000 0.000000 0.000000
      vertex  -15.519396 2.000185 1.843270
      vertex  -15.499209 2.000000 -0.156629
    endloop
  endfacet
endsolid (c) Fraunhofer IGD 2007
