solid ascii
  facet normal 0.000000e+000 -0.000000e+000 -1.000000e+000
    outer loop
      vertex   -1.268717e+001 2.681041e+001 -1.000000e+000
      vertex   2.340865e+001 2.247660e+001 -1.000000e+000
      vertex   2.109174e+001 2.085428e+001 -1.000000e+000
    endloop
  endfacet
  facet normal 0.000000e+000 0.000000e+000 -1.000000e+000
    outer loop
      vertex   -1.268717e+001 2.681041e+001 -1.000000e+000
      vertex   -1.430949e+001 2.912733e+001 -1.000000e+000
      vertex   2.340865e+001 2.247660e+001 -1.000000e+000
    endloop
  endfacet
  facet normal 0.000000e+000 0.000000e+000 -1.000000e+000
    outer loop
      vertex   -1.268717e+001 2.681041e+001 -1.000000e+000
      vertex   -1.433957e+001 2.881493e+001 -1.000000e+000
      vertex   -1.430949e+001 2.912733e+001 -1.000000e+000
    endloop
  endfacet
  facet normal 0.000000e+000 0.000000e+000 -1.000000e+000
    outer loop
      vertex   -1.268717e+001 2.681041e+001 -1.000000e+000
      vertex   -1.432041e+001 2.850168e+001 -1.000000e+000
      vertex   -1.433957e+001 2.881493e+001 -1.000000e+000
    endloop
  endfacet
  facet normal 0.000000e+000 0.000000e+000 -1.000000e+000
    outer loop
      vertex   -1.268717e+001 2.681041e+001 -1.000000e+000
      vertex   -1.425248e+001 2.819529e+001 -1.000000e+000
      vertex   -1.432041e+001 2.850168e+001 -1.000000e+000
    endloop
  endfacet
  facet normal 0.000000e+000 0.000000e+000 -1.000000e+000
    outer loop
      vertex   -1.268717e+001 2.681041e+001 -1.000000e+000
      vertex   -1.413746e+001 2.790329e+001 -1.000000e+000
      vertex   -1.425248e+001 2.819529e+001 -1.000000e+000
    endloop
  endfacet
  facet normal 0.000000e+000 0.000000e+000 -1.000000e+000
    outer loop
      vertex   -1.268717e+001 2.681041e+001 -1.000000e+000
      vertex   -1.397817e+001 2.763288e+001 -1.000000e+000
      vertex   -1.413746e+001 2.790329e+001 -1.000000e+000
    endloop
  endfacet
  facet normal 0.000000e+000 0.000000e+000 -1.000000e+000
    outer loop
      vertex   -1.268717e+001 2.681041e+001 -1.000000e+000
      vertex   -1.377855e+001 2.739071e+001 -1.000000e+000
      vertex   -1.397817e+001 2.763288e+001 -1.000000e+000
    endloop
  endfacet
  facet normal 0.000000e+000 0.000000e+000 -1.000000e+000
    outer loop
      vertex   -1.268717e+001 2.681041e+001 -1.000000e+000
      vertex   -1.354350e+001 2.718276e+001 -1.000000e+000
      vertex   -1.377855e+001 2.739071e+001 -1.000000e+000
    endloop
  endfacet
  facet normal 0.000000e+000 0.000000e+000 -1.000000e+000
    outer loop
      vertex   -1.268717e+001 2.681041e+001 -1.000000e+000
      vertex   -1.327881e+001 2.701413e+001 -1.000000e+000
      vertex   -1.354350e+001 2.718276e+001 -1.000000e+000
    endloop
  endfacet
  facet normal 0.000000e+000 0.000000e+000 -1.000000e+000
    outer loop
      vertex   -1.268717e+001 2.681041e+001 -1.000000e+000
      vertex   -1.299101e+001 2.688899e+001 -1.000000e+000
      vertex   -1.327881e+001 2.701413e+001 -1.000000e+000
    endloop
  endfacet
  facet normal 0.000000e+000 0.000000e+000 -1.000000e+000
    outer loop
      vertex   2.340865e+001 2.247660e+001 -1.000000e+000
      vertex   -1.430949e+001 2.912733e+001 -1.000000e+000
      vertex   2.589182e+001 3.655935e+001 -1.000000e+000
    endloop
  endfacet
  facet normal -0.000000e+000 0.000000e+000 -1.000000e+000
    outer loop
      vertex   2.589182e+001 3.655935e+001 -1.000000e+000
      vertex   -1.430949e+001 2.912733e+001 -1.000000e+000
      vertex   -1.182632e+001 4.321008e+001 -1.000000e+000
    endloop
  endfacet
  facet normal 0.000000e+000 0.000000e+000 -1.000000e+000
    outer loop
      vertex   2.512583e+001 3.850392e+001 -1.000000e+000
      vertex   -1.182632e+001 4.321008e+001 -1.000000e+000
      vertex   -1.044145e+001 4.477539e+001 -1.000000e+000
    endloop
  endfacet
  facet normal 0.000000e+000 0.000000e+000 -1.000000e+000
    outer loop
      vertex   2.486115e+001 3.867254e+001 -1.000000e+000
      vertex   -1.044145e+001 4.477539e+001 -1.000000e+000
      vertex   -1.013505e+001 4.484332e+001 -1.000000e+000
    endloop
  endfacet
  facet normal 0.000000e+000 0.000000e+000 -1.000000e+000
    outer loop
      vertex   2.457334e+001 3.879768e+001 -1.000000e+000
      vertex   -1.013505e+001 4.484332e+001 -1.000000e+000
      vertex   -9.821797e+000 4.486248e+001 -1.000000e+000
    endloop
  endfacet
  facet normal 0.000000e+000 0.000000e+000 -1.000000e+000
    outer loop
      vertex   2.426950e+001 3.887626e+001 -1.000000e+000
      vertex   -9.821797e+000 4.486248e+001 -1.000000e+000
      vertex   -9.509405e+000 4.483240e+001 -1.000000e+000
    endloop
  endfacet
  facet normal -0.000000e+000 -0.000000e+000 -1.000000e+000
    outer loop
      vertex   2.426950e+001 3.887626e+001 -1.000000e+000
      vertex   2.457334e+001 3.879768e+001 -1.000000e+000
      vertex   -9.821797e+000 4.486248e+001 -1.000000e+000
    endloop
  endfacet
  facet normal -0.000000e+000 0.000000e+000 -1.000000e+000
    outer loop
      vertex   -1.044145e+001 4.477539e+001 -1.000000e+000
      vertex   -1.182632e+001 4.321008e+001 -1.000000e+000
      vertex   -1.073344e+001 4.466037e+001 -1.000000e+000
    endloop
  endfacet
  facet normal -0.000000e+000 0.000000e+000 -1.000000e+000
    outer loop
      vertex   -1.073344e+001 4.466037e+001 -1.000000e+000
      vertex   -1.182632e+001 4.321008e+001 -1.000000e+000
      vertex   -1.174774e+001 4.351392e+001 -1.000000e+000
    endloop
  endfacet
  facet normal 0.000000e+000 -0.000000e+000 -1.000000e+000
    outer loop
      vertex   -1.162260e+001 4.380172e+001 -1.000000e+000
      vertex   -1.073344e+001 4.466037e+001 -1.000000e+000
      vertex   -1.174774e+001 4.351392e+001 -1.000000e+000
    endloop
  endfacet
  facet normal 0.000000e+000 0.000000e+000 -1.000000e+000
    outer loop
      vertex   -1.162260e+001 4.380172e+001 -1.000000e+000
      vertex   -1.145397e+001 4.406641e+001 -1.000000e+000
      vertex   -1.073344e+001 4.466037e+001 -1.000000e+000
    endloop
  endfacet
  facet normal -0.000000e+000 0.000000e+000 -1.000000e+000
    outer loop
      vertex   -1.073344e+001 4.466037e+001 -1.000000e+000
      vertex   -1.145397e+001 4.406641e+001 -1.000000e+000
      vertex   -1.124602e+001 4.430146e+001 -1.000000e+000
    endloop
  endfacet
  facet normal 0.000000e+000 -0.000000e+000 -1.000000e+000
    outer loop
      vertex   -1.100385e+001 4.450108e+001 -1.000000e+000
      vertex   -1.073344e+001 4.466037e+001 -1.000000e+000
      vertex   -1.124602e+001 4.430146e+001 -1.000000e+000
    endloop
  endfacet
  facet normal 0.000000e+000 0.000000e+000 -1.000000e+000
    outer loop
      vertex   2.512583e+001 3.850392e+001 -1.000000e+000
      vertex   -1.044145e+001 4.477539e+001 -1.000000e+000
      vertex   2.486115e+001 3.867254e+001 -1.000000e+000
    endloop
  endfacet
  facet normal 0.000000e+000 0.000000e+000 -1.000000e+000
    outer loop
      vertex   2.486115e+001 3.867254e+001 -1.000000e+000
      vertex   -1.013505e+001 4.484332e+001 -1.000000e+000
      vertex   2.457334e+001 3.879768e+001 -1.000000e+000
    endloop
  endfacet
  facet normal -0.000000e+000 -0.000000e+000 -1.000000e+000
    outer loop
      vertex   2.536088e+001 3.829596e+001 -1.000000e+000
      vertex   2.556051e+001 3.805380e+001 -1.000000e+000
      vertex   2.512583e+001 3.850392e+001 -1.000000e+000
    endloop
  endfacet
  facet normal 0.000000e+000 0.000000e+000 -1.000000e+000
    outer loop
      vertex   2.512583e+001 3.850392e+001 -1.000000e+000
      vertex   2.556051e+001 3.805380e+001 -1.000000e+000
      vertex   2.571979e+001 3.778339e+001 -1.000000e+000
    endloop
  endfacet
  facet normal 0.000000e+000 0.000000e+000 -1.000000e+000
    outer loop
      vertex   2.583481e+001 3.749139e+001 -1.000000e+000
      vertex   2.512583e+001 3.850392e+001 -1.000000e+000
      vertex   2.571979e+001 3.778339e+001 -1.000000e+000
    endloop
  endfacet
  facet normal -0.000000e+000 -0.000000e+000 -1.000000e+000
    outer loop
      vertex   2.583481e+001 3.749139e+001 -1.000000e+000
      vertex   2.590274e+001 3.718499e+001 -1.000000e+000
      vertex   2.512583e+001 3.850392e+001 -1.000000e+000
    endloop
  endfacet
  facet normal 0.000000e+000 0.000000e+000 -1.000000e+000
    outer loop
      vertex   2.512583e+001 3.850392e+001 -1.000000e+000
      vertex   2.590274e+001 3.718499e+001 -1.000000e+000
      vertex   2.592190e+001 3.687174e+001 -1.000000e+000
    endloop
  endfacet
  facet normal 0.000000e+000 0.000000e+000 -1.000000e+000
    outer loop
      vertex   2.589182e+001 3.655935e+001 -1.000000e+000
      vertex   2.512583e+001 3.850392e+001 -1.000000e+000
      vertex   2.592190e+001 3.687174e+001 -1.000000e+000
    endloop
  endfacet
  facet normal 0.000000e+000 0.000000e+000 -1.000000e+000
    outer loop
      vertex   2.589182e+001 3.655935e+001 -1.000000e+000
      vertex   -1.182632e+001 4.321008e+001 -1.000000e+000
      vertex   2.512583e+001 3.850392e+001 -1.000000e+000
    endloop
  endfacet
  facet normal 0.000000e+000 0.000000e+000 -1.000000e+000
    outer loop
      vertex   2.340865e+001 2.247660e+001 -1.000000e+000
      vertex   2.333007e+001 2.217276e+001 -1.000000e+000
      vertex   2.109174e+001 2.085428e+001 -1.000000e+000
    endloop
  endfacet
  facet normal 0.000000e+000 -0.000000e+000 -1.000000e+000
    outer loop
      vertex   2.109174e+001 2.085428e+001 -1.000000e+000
      vertex   2.333007e+001 2.217276e+001 -1.000000e+000
      vertex   2.320493e+001 2.188495e+001 -1.000000e+000
    endloop
  endfacet
  facet normal -0.000000e+000 0.000000e+000 -1.000000e+000
    outer loop
      vertex   2.303631e+001 2.162027e+001 -1.000000e+000
      vertex   2.109174e+001 2.085428e+001 -1.000000e+000
      vertex   2.320493e+001 2.188495e+001 -1.000000e+000
    endloop
  endfacet
  facet normal 0.000000e+000 0.000000e+000 -1.000000e+000
    outer loop
      vertex   2.303631e+001 2.162027e+001 -1.000000e+000
      vertex   2.282835e+001 2.138522e+001 -1.000000e+000
      vertex   2.109174e+001 2.085428e+001 -1.000000e+000
    endloop
  endfacet
  facet normal 0.000000e+000 -0.000000e+000 -1.000000e+000
    outer loop
      vertex   2.109174e+001 2.085428e+001 -1.000000e+000
      vertex   2.282835e+001 2.138522e+001 -1.000000e+000
      vertex   2.258619e+001 2.118559e+001 -1.000000e+000
    endloop
  endfacet
  facet normal -0.000000e+000 0.000000e+000 -1.000000e+000
    outer loop
      vertex   2.231578e+001 2.102631e+001 -1.000000e+000
      vertex   2.109174e+001 2.085428e+001 -1.000000e+000
      vertex   2.258619e+001 2.118559e+001 -1.000000e+000
    endloop
  endfacet
  facet normal 0.000000e+000 0.000000e+000 -1.000000e+000
    outer loop
      vertex   2.231578e+001 2.102631e+001 -1.000000e+000
      vertex   2.202378e+001 2.091129e+001 -1.000000e+000
      vertex   2.109174e+001 2.085428e+001 -1.000000e+000
    endloop
  endfacet
  facet normal 0.000000e+000 -0.000000e+000 -1.000000e+000
    outer loop
      vertex   2.109174e+001 2.085428e+001 -1.000000e+000
      vertex   2.202378e+001 2.091129e+001 -1.000000e+000
      vertex   2.171738e+001 2.084336e+001 -1.000000e+000
    endloop
  endfacet
  facet normal 0.000000e+000 0.000000e+000 -1.000000e+000
    outer loop
      vertex   2.140413e+001 2.082420e+001 -1.000000e+000
      vertex   2.109174e+001 2.085428e+001 -1.000000e+000
      vertex   2.171738e+001 2.084336e+001 -1.000000e+000
    endloop
  endfacet
  facet normal -9.848078e-001 1.736482e-001 0.000000e+000
    outer loop
      vertex   -1.182632e+001 4.321008e+001 1.000000e+000
      vertex   -1.182632e+001 4.321008e+001 -1.000000e+000
      vertex   -1.430949e+001 2.912733e+001 1.000000e+000
    endloop
  endfacet
  facet normal -9.848078e-001 1.736482e-001 0.000000e+000
    outer loop
      vertex   -1.430949e+001 2.912733e+001 1.000000e+000
      vertex   -1.182632e+001 4.321008e+001 -1.000000e+000
      vertex   -1.430949e+001 2.912733e+001 -1.000000e+000
    endloop
  endfacet
  facet normal -9.681476e-001 2.503800e-001 0.000000e+000
    outer loop
      vertex   -1.182632e+001 4.321008e+001 1.000000e+000
      vertex   -1.174774e+001 4.351392e+001 1.000000e+000
      vertex   -1.182632e+001 4.321008e+001 -1.000000e+000
    endloop
  endfacet
  facet normal -9.681476e-001 2.503800e-001 0.000000e+000
    outer loop
      vertex   -1.182632e+001 4.321008e+001 -1.000000e+000
      vertex   -1.174774e+001 4.351392e+001 1.000000e+000
      vertex   -1.174774e+001 4.351392e+001 -1.000000e+000
    endloop
  endfacet
  facet normal -9.170601e-001 3.987491e-001 0.000000e+000
    outer loop
      vertex   -1.174774e+001 4.351392e+001 -1.000000e+000
      vertex   -1.174774e+001 4.351392e+001 1.000000e+000
      vertex   -1.162260e+001 4.380172e+001 1.000000e+000
    endloop
  endfacet
  facet normal -8.433914e-001 5.372996e-001 0.000000e+000
    outer loop
      vertex   -1.162260e+001 4.380172e+001 -1.000000e+000
      vertex   -1.162260e+001 4.380172e+001 1.000000e+000
      vertex   -1.145397e+001 4.406641e+001 1.000000e+000
    endloop
  endfacet
  facet normal -7.489557e-001 6.626200e-001 0.000000e+000
    outer loop
      vertex   -1.145397e+001 4.406641e+001 -1.000000e+000
      vertex   -1.145397e+001 4.406641e+001 1.000000e+000
      vertex   -1.124602e+001 4.430146e+001 1.000000e+000
    endloop
  endfacet
  facet normal -6.360782e-001 7.716246e-001 0.000000e+000
    outer loop
      vertex   -1.124602e+001 4.430146e+001 -1.000000e+000
      vertex   -1.124602e+001 4.430146e+001 1.000000e+000
      vertex   -1.100385e+001 4.450108e+001 1.000000e+000
    endloop
  endfacet
  facet normal -5.075384e-001 8.616292e-001 0.000000e+000
    outer loop
      vertex   -1.100385e+001 4.450108e+001 -1.000000e+000
      vertex   -1.100385e+001 4.450108e+001 1.000000e+000
      vertex   -1.073344e+001 4.466037e+001 1.000000e+000
    endloop
  endfacet
  facet normal -3.665012e-001 9.304176e-001 0.000000e+000
    outer loop
      vertex   -1.073344e+001 4.466037e+001 -1.000000e+000
      vertex   -1.073344e+001 4.466037e+001 1.000000e+000
      vertex   -1.044145e+001 4.477539e+001 -1.000000e+000
    endloop
  endfacet
  facet normal -5.075384e-001 8.616292e-001 0.000000e+000
    outer loop
      vertex   -1.073344e+001 4.466037e+001 -1.000000e+000
      vertex   -1.100385e+001 4.450108e+001 -1.000000e+000
      vertex   -1.073344e+001 4.466037e+001 1.000000e+000
    endloop
  endfacet
  facet normal -9.170601e-001 3.987491e-001 0.000000e+000
    outer loop
      vertex   -1.174774e+001 4.351392e+001 -1.000000e+000
      vertex   -1.162260e+001 4.380172e+001 1.000000e+000
      vertex   -1.162260e+001 4.380172e+001 -1.000000e+000
    endloop
  endfacet
  facet normal -8.433914e-001 5.372996e-001 0.000000e+000
    outer loop
      vertex   -1.162260e+001 4.380172e+001 -1.000000e+000
      vertex   -1.145397e+001 4.406641e+001 1.000000e+000
      vertex   -1.145397e+001 4.406641e+001 -1.000000e+000
    endloop
  endfacet
  facet normal -7.489557e-001 6.626200e-001 0.000000e+000
    outer loop
      vertex   -1.145397e+001 4.406641e+001 -1.000000e+000
      vertex   -1.124602e+001 4.430146e+001 1.000000e+000
      vertex   -1.124602e+001 4.430146e+001 -1.000000e+000
    endloop
  endfacet
  facet normal -6.360782e-001 7.716246e-001 0.000000e+000
    outer loop
      vertex   -1.124602e+001 4.430146e+001 -1.000000e+000
      vertex   -1.100385e+001 4.450108e+001 1.000000e+000
      vertex   -1.100385e+001 4.450108e+001 -1.000000e+000
    endloop
  endfacet
  facet normal -3.665012e-001 9.304176e-001 0.000000e+000
    outer loop
      vertex   -1.073344e+001 4.466037e+001 1.000000e+000
      vertex   -1.044145e+001 4.477539e+001 1.000000e+000
      vertex   -1.044145e+001 4.477539e+001 -1.000000e+000
    endloop
  endfacet
  facet normal -2.164396e-001 9.762960e-001 0.000000e+000
    outer loop
      vertex   -1.044145e+001 4.477539e+001 -1.000000e+000
      vertex   -1.044145e+001 4.477539e+001 1.000000e+000
      vertex   -1.013505e+001 4.484332e+001 1.000000e+000
    endloop
  endfacet
  facet normal -6.104854e-002 9.981348e-001 0.000000e+000
    outer loop
      vertex   -1.013505e+001 4.484332e+001 -1.000000e+000
      vertex   -1.013505e+001 4.484332e+001 1.000000e+000
      vertex   -9.821797e+000 4.486248e+001 1.000000e+000
    endloop
  endfacet
  facet normal 9.584575e-002 9.953962e-001 -0.000000e+000
    outer loop
      vertex   -9.821797e+000 4.486248e+001 -1.000000e+000
      vertex   -9.821797e+000 4.486248e+001 1.000000e+000
      vertex   -9.509405e+000 4.483240e+001 1.000000e+000
    endloop
  endfacet
  facet normal 9.584575e-002 9.953962e-001 0.000000e+000
    outer loop
      vertex   -9.509405e+000 4.483240e+001 -1.000000e+000
      vertex   -9.821797e+000 4.486248e+001 -1.000000e+000
      vertex   -9.509405e+000 4.483240e+001 1.000000e+000
    endloop
  endfacet
  facet normal -2.164396e-001 9.762960e-001 0.000000e+000
    outer loop
      vertex   -1.044145e+001 4.477539e+001 -1.000000e+000
      vertex   -1.013505e+001 4.484332e+001 1.000000e+000
      vertex   -1.013505e+001 4.484332e+001 -1.000000e+000
    endloop
  endfacet
  facet normal -6.104854e-002 9.981348e-001 0.000000e+000
    outer loop
      vertex   -1.013505e+001 4.484332e+001 -1.000000e+000
      vertex   -9.821797e+000 4.486248e+001 1.000000e+000
      vertex   -9.821797e+000 4.486248e+001 -1.000000e+000
    endloop
  endfacet
  facet normal 1.736482e-001 9.848078e-001 0.000000e+000
    outer loop
      vertex   2.426950e+001 3.887626e+001 1.000000e+000
      vertex   2.426950e+001 3.887626e+001 -1.000000e+000
      vertex   -9.509405e+000 4.483240e+001 1.000000e+000
    endloop
  endfacet
  facet normal 1.736482e-001 9.848078e-001 0.000000e+000
    outer loop
      vertex   -9.509405e+000 4.483240e+001 1.000000e+000
      vertex   2.426950e+001 3.887626e+001 -1.000000e+000
      vertex   -9.509405e+000 4.483240e+001 -1.000000e+000
    endloop
  endfacet
  facet normal 2.503800e-001 9.681476e-001 0.000000e+000
    outer loop
      vertex   2.426950e+001 3.887626e+001 1.000000e+000
      vertex   2.457334e+001 3.879768e+001 1.000000e+000
      vertex   2.426950e+001 3.887626e+001 -1.000000e+000
    endloop
  endfacet
  facet normal 2.503800e-001 9.681476e-001 0.000000e+000
    outer loop
      vertex   2.426950e+001 3.887626e+001 -1.000000e+000
      vertex   2.457334e+001 3.879768e+001 1.000000e+000
      vertex   2.457334e+001 3.879768e+001 -1.000000e+000
    endloop
  endfacet
  facet normal 3.987491e-001 9.170601e-001 -0.000000e+000
    outer loop
      vertex   2.457334e+001 3.879768e+001 -1.000000e+000
      vertex   2.457334e+001 3.879768e+001 1.000000e+000
      vertex   2.486115e+001 3.867254e+001 1.000000e+000
    endloop
  endfacet
  facet normal 5.372996e-001 8.433914e-001 -0.000000e+000
    outer loop
      vertex   2.486115e+001 3.867254e+001 -1.000000e+000
      vertex   2.486115e+001 3.867254e+001 1.000000e+000
      vertex   2.512583e+001 3.850392e+001 1.000000e+000
    endloop
  endfacet
  facet normal 6.626200e-001 7.489557e-001 -0.000000e+000
    outer loop
      vertex   2.512583e+001 3.850392e+001 -1.000000e+000
      vertex   2.512583e+001 3.850392e+001 1.000000e+000
      vertex   2.536088e+001 3.829596e+001 1.000000e+000
    endloop
  endfacet
  facet normal 7.716246e-001 6.360782e-001 -0.000000e+000
    outer loop
      vertex   2.536088e+001 3.829596e+001 -1.000000e+000
      vertex   2.536088e+001 3.829596e+001 1.000000e+000
      vertex   2.556051e+001 3.805380e+001 1.000000e+000
    endloop
  endfacet
  facet normal 8.616292e-001 5.075384e-001 -0.000000e+000
    outer loop
      vertex   2.556051e+001 3.805380e+001 -1.000000e+000
      vertex   2.556051e+001 3.805380e+001 1.000000e+000
      vertex   2.571979e+001 3.778339e+001 1.000000e+000
    endloop
  endfacet
  facet normal 9.304176e-001 3.665012e-001 -0.000000e+000
    outer loop
      vertex   2.571979e+001 3.778339e+001 -1.000000e+000
      vertex   2.571979e+001 3.778339e+001 1.000000e+000
      vertex   2.583481e+001 3.749139e+001 -1.000000e+000
    endloop
  endfacet
  facet normal 8.616292e-001 5.075384e-001 0.000000e+000
    outer loop
      vertex   2.571979e+001 3.778339e+001 -1.000000e+000
      vertex   2.556051e+001 3.805380e+001 -1.000000e+000
      vertex   2.571979e+001 3.778339e+001 1.000000e+000
    endloop
  endfacet
  facet normal 3.987491e-001 9.170601e-001 0.000000e+000
    outer loop
      vertex   2.457334e+001 3.879768e+001 -1.000000e+000
      vertex   2.486115e+001 3.867254e+001 1.000000e+000
      vertex   2.486115e+001 3.867254e+001 -1.000000e+000
    endloop
  endfacet
  facet normal 5.372996e-001 8.433914e-001 0.000000e+000
    outer loop
      vertex   2.486115e+001 3.867254e+001 -1.000000e+000
      vertex   2.512583e+001 3.850392e+001 1.000000e+000
      vertex   2.512583e+001 3.850392e+001 -1.000000e+000
    endloop
  endfacet
  facet normal 6.626200e-001 7.489557e-001 0.000000e+000
    outer loop
      vertex   2.512583e+001 3.850392e+001 -1.000000e+000
      vertex   2.536088e+001 3.829596e+001 1.000000e+000
      vertex   2.536088e+001 3.829596e+001 -1.000000e+000
    endloop
  endfacet
  facet normal 7.716246e-001 6.360782e-001 0.000000e+000
    outer loop
      vertex   2.536088e+001 3.829596e+001 -1.000000e+000
      vertex   2.556051e+001 3.805380e+001 1.000000e+000
      vertex   2.556051e+001 3.805380e+001 -1.000000e+000
    endloop
  endfacet
  facet normal 9.304176e-001 3.665012e-001 0.000000e+000
    outer loop
      vertex   2.571979e+001 3.778339e+001 1.000000e+000
      vertex   2.583481e+001 3.749139e+001 1.000000e+000
      vertex   2.583481e+001 3.749139e+001 -1.000000e+000
    endloop
  endfacet
  facet normal 9.762960e-001 2.164396e-001 -0.000000e+000
    outer loop
      vertex   2.583481e+001 3.749139e+001 -1.000000e+000
      vertex   2.583481e+001 3.749139e+001 1.000000e+000
      vertex   2.590274e+001 3.718499e+001 1.000000e+000
    endloop
  endfacet
  facet normal 9.981348e-001 6.104854e-002 -0.000000e+000
    outer loop
      vertex   2.590274e+001 3.718499e+001 -1.000000e+000
      vertex   2.590274e+001 3.718499e+001 1.000000e+000
      vertex   2.592190e+001 3.687174e+001 1.000000e+000
    endloop
  endfacet
  facet normal 9.953962e-001 -9.584575e-002 0.000000e+000
    outer loop
      vertex   2.592190e+001 3.687174e+001 -1.000000e+000
      vertex   2.592190e+001 3.687174e+001 1.000000e+000
      vertex   2.589182e+001 3.655935e+001 1.000000e+000
    endloop
  endfacet
  facet normal 9.953962e-001 -9.584575e-002 0.000000e+000
    outer loop
      vertex   2.589182e+001 3.655935e+001 -1.000000e+000
      vertex   2.592190e+001 3.687174e+001 -1.000000e+000
      vertex   2.589182e+001 3.655935e+001 1.000000e+000
    endloop
  endfacet
  facet normal 9.762960e-001 2.164396e-001 0.000000e+000
    outer loop
      vertex   2.583481e+001 3.749139e+001 -1.000000e+000
      vertex   2.590274e+001 3.718499e+001 1.000000e+000
      vertex   2.590274e+001 3.718499e+001 -1.000000e+000
    endloop
  endfacet
  facet normal 9.981348e-001 6.104854e-002 0.000000e+000
    outer loop
      vertex   2.590274e+001 3.718499e+001 -1.000000e+000
      vertex   2.592190e+001 3.687174e+001 1.000000e+000
      vertex   2.592190e+001 3.687174e+001 -1.000000e+000
    endloop
  endfacet
  facet normal 9.848078e-001 -1.736482e-001 0.000000e+000
    outer loop
      vertex   2.340865e+001 2.247660e+001 1.000000e+000
      vertex   2.340865e+001 2.247660e+001 -1.000000e+000
      vertex   2.589182e+001 3.655935e+001 1.000000e+000
    endloop
  endfacet
  facet normal 9.848078e-001 -1.736482e-001 0.000000e+000
    outer loop
      vertex   2.589182e+001 3.655935e+001 1.000000e+000
      vertex   2.340865e+001 2.247660e+001 -1.000000e+000
      vertex   2.589182e+001 3.655935e+001 -1.000000e+000
    endloop
  endfacet
  facet normal 9.681476e-001 -2.503800e-001 0.000000e+000
    outer loop
      vertex   2.340865e+001 2.247660e+001 1.000000e+000
      vertex   2.333007e+001 2.217276e+001 1.000000e+000
      vertex   2.340865e+001 2.247660e+001 -1.000000e+000
    endloop
  endfacet
  facet normal 9.681476e-001 -2.503800e-001 0.000000e+000
    outer loop
      vertex   2.340865e+001 2.247660e+001 -1.000000e+000
      vertex   2.333007e+001 2.217276e+001 1.000000e+000
      vertex   2.333007e+001 2.217276e+001 -1.000000e+000
    endloop
  endfacet
  facet normal 9.170601e-001 -3.987491e-001 0.000000e+000
    outer loop
      vertex   2.333007e+001 2.217276e+001 -1.000000e+000
      vertex   2.333007e+001 2.217276e+001 1.000000e+000
      vertex   2.320493e+001 2.188495e+001 1.000000e+000
    endloop
  endfacet
  facet normal 8.433914e-001 -5.372996e-001 0.000000e+000
    outer loop
      vertex   2.320493e+001 2.188495e+001 -1.000000e+000
      vertex   2.320493e+001 2.188495e+001 1.000000e+000
      vertex   2.303631e+001 2.162027e+001 1.000000e+000
    endloop
  endfacet
  facet normal 7.489557e-001 -6.626200e-001 0.000000e+000
    outer loop
      vertex   2.303631e+001 2.162027e+001 -1.000000e+000
      vertex   2.303631e+001 2.162027e+001 1.000000e+000
      vertex   2.282835e+001 2.138522e+001 1.000000e+000
    endloop
  endfacet
  facet normal 6.360782e-001 -7.716246e-001 0.000000e+000
    outer loop
      vertex   2.282835e+001 2.138522e+001 -1.000000e+000
      vertex   2.282835e+001 2.138522e+001 1.000000e+000
      vertex   2.258619e+001 2.118559e+001 1.000000e+000
    endloop
  endfacet
  facet normal 5.075384e-001 -8.616292e-001 0.000000e+000
    outer loop
      vertex   2.258619e+001 2.118559e+001 -1.000000e+000
      vertex   2.258619e+001 2.118559e+001 1.000000e+000
      vertex   2.231578e+001 2.102631e+001 1.000000e+000
    endloop
  endfacet
  facet normal 3.665012e-001 -9.304176e-001 0.000000e+000
    outer loop
      vertex   2.231578e+001 2.102631e+001 -1.000000e+000
      vertex   2.231578e+001 2.102631e+001 1.000000e+000
      vertex   2.202378e+001 2.091129e+001 -1.000000e+000
    endloop
  endfacet
  facet normal 5.075384e-001 -8.616292e-001 0.000000e+000
    outer loop
      vertex   2.231578e+001 2.102631e+001 -1.000000e+000
      vertex   2.258619e+001 2.118559e+001 -1.000000e+000
      vertex   2.231578e+001 2.102631e+001 1.000000e+000
    endloop
  endfacet
  facet normal 9.170601e-001 -3.987491e-001 0.000000e+000
    outer loop
      vertex   2.333007e+001 2.217276e+001 -1.000000e+000
      vertex   2.320493e+001 2.188495e+001 1.000000e+000
      vertex   2.320493e+001 2.188495e+001 -1.000000e+000
    endloop
  endfacet
  facet normal 8.433914e-001 -5.372996e-001 0.000000e+000
    outer loop
      vertex   2.320493e+001 2.188495e+001 -1.000000e+000
      vertex   2.303631e+001 2.162027e+001 1.000000e+000
      vertex   2.303631e+001 2.162027e+001 -1.000000e+000
    endloop
  endfacet
  facet normal 7.489557e-001 -6.626200e-001 0.000000e+000
    outer loop
      vertex   2.303631e+001 2.162027e+001 -1.000000e+000
      vertex   2.282835e+001 2.138522e+001 1.000000e+000
      vertex   2.282835e+001 2.138522e+001 -1.000000e+000
    endloop
  endfacet
  facet normal 6.360782e-001 -7.716246e-001 0.000000e+000
    outer loop
      vertex   2.282835e+001 2.138522e+001 -1.000000e+000
      vertex   2.258619e+001 2.118559e+001 1.000000e+000
      vertex   2.258619e+001 2.118559e+001 -1.000000e+000
    endloop
  endfacet
  facet normal 3.665012e-001 -9.304176e-001 0.000000e+000
    outer loop
      vertex   2.231578e+001 2.102631e+001 1.000000e+000
      vertex   2.202378e+001 2.091129e+001 1.000000e+000
      vertex   2.202378e+001 2.091129e+001 -1.000000e+000
    endloop
  endfacet
  facet normal 2.164396e-001 -9.762960e-001 0.000000e+000
    outer loop
      vertex   2.202378e+001 2.091129e+001 -1.000000e+000
      vertex   2.202378e+001 2.091129e+001 1.000000e+000
      vertex   2.171738e+001 2.084336e+001 1.000000e+000
    endloop
  endfacet
  facet normal 6.104854e-002 -9.981348e-001 0.000000e+000
    outer loop
      vertex   2.171738e+001 2.084336e+001 -1.000000e+000
      vertex   2.171738e+001 2.084336e+001 1.000000e+000
      vertex   2.140413e+001 2.082420e+001 1.000000e+000
    endloop
  endfacet
  facet normal -9.584575e-002 -9.953962e-001 0.000000e+000
    outer loop
      vertex   2.140413e+001 2.082420e+001 -1.000000e+000
      vertex   2.140413e+001 2.082420e+001 1.000000e+000
      vertex   2.109174e+001 2.085428e+001 1.000000e+000
    endloop
  endfacet
  facet normal -9.584575e-002 -9.953962e-001 0.000000e+000
    outer loop
      vertex   2.109174e+001 2.085428e+001 -1.000000e+000
      vertex   2.140413e+001 2.082420e+001 -1.000000e+000
      vertex   2.109174e+001 2.085428e+001 1.000000e+000
    endloop
  endfacet
  facet normal 2.164396e-001 -9.762960e-001 0.000000e+000
    outer loop
      vertex   2.202378e+001 2.091129e+001 -1.000000e+000
      vertex   2.171738e+001 2.084336e+001 1.000000e+000
      vertex   2.171738e+001 2.084336e+001 -1.000000e+000
    endloop
  endfacet
  facet normal 6.104854e-002 -9.981348e-001 0.000000e+000
    outer loop
      vertex   2.171738e+001 2.084336e+001 -1.000000e+000
      vertex   2.140413e+001 2.082420e+001 1.000000e+000
      vertex   2.140413e+001 2.082420e+001 -1.000000e+000
    endloop
  endfacet
  facet normal -1.736482e-001 -9.848078e-001 -0.000000e+000
    outer loop
      vertex   -1.268717e+001 2.681041e+001 1.000000e+000
      vertex   -1.268717e+001 2.681041e+001 -1.000000e+000
      vertex   2.109174e+001 2.085428e+001 1.000000e+000
    endloop
  endfacet
  facet normal -1.736482e-001 -9.848078e-001 0.000000e+000
    outer loop
      vertex   2.109174e+001 2.085428e+001 1.000000e+000
      vertex   -1.268717e+001 2.681041e+001 -1.000000e+000
      vertex   2.109174e+001 2.085428e+001 -1.000000e+000
    endloop
  endfacet
  facet normal -2.503800e-001 -9.681476e-001 0.000000e+000
    outer loop
      vertex   -1.268717e+001 2.681041e+001 1.000000e+000
      vertex   -1.299101e+001 2.688899e+001 1.000000e+000
      vertex   -1.268717e+001 2.681041e+001 -1.000000e+000
    endloop
  endfacet
  facet normal -2.503800e-001 -9.681476e-001 -0.000000e+000
    outer loop
      vertex   -1.268717e+001 2.681041e+001 -1.000000e+000
      vertex   -1.299101e+001 2.688899e+001 1.000000e+000
      vertex   -1.299101e+001 2.688899e+001 -1.000000e+000
    endloop
  endfacet
  facet normal -3.987491e-001 -9.170601e-001 0.000000e+000
    outer loop
      vertex   -1.299101e+001 2.688899e+001 -1.000000e+000
      vertex   -1.299101e+001 2.688899e+001 1.000000e+000
      vertex   -1.327881e+001 2.701413e+001 1.000000e+000
    endloop
  endfacet
  facet normal -5.372996e-001 -8.433914e-001 0.000000e+000
    outer loop
      vertex   -1.327881e+001 2.701413e+001 -1.000000e+000
      vertex   -1.327881e+001 2.701413e+001 1.000000e+000
      vertex   -1.354350e+001 2.718276e+001 1.000000e+000
    endloop
  endfacet
  facet normal -6.626200e-001 -7.489557e-001 0.000000e+000
    outer loop
      vertex   -1.354350e+001 2.718276e+001 -1.000000e+000
      vertex   -1.354350e+001 2.718276e+001 1.000000e+000
      vertex   -1.377855e+001 2.739071e+001 1.000000e+000
    endloop
  endfacet
  facet normal -7.716246e-001 -6.360782e-001 0.000000e+000
    outer loop
      vertex   -1.377855e+001 2.739071e+001 -1.000000e+000
      vertex   -1.377855e+001 2.739071e+001 1.000000e+000
      vertex   -1.397817e+001 2.763288e+001 1.000000e+000
    endloop
  endfacet
  facet normal -8.616292e-001 -5.075384e-001 0.000000e+000
    outer loop
      vertex   -1.397817e+001 2.763288e+001 -1.000000e+000
      vertex   -1.397817e+001 2.763288e+001 1.000000e+000
      vertex   -1.413746e+001 2.790329e+001 1.000000e+000
    endloop
  endfacet
  facet normal -9.304176e-001 -3.665012e-001 0.000000e+000
    outer loop
      vertex   -1.413746e+001 2.790329e+001 -1.000000e+000
      vertex   -1.413746e+001 2.790329e+001 1.000000e+000
      vertex   -1.425248e+001 2.819529e+001 -1.000000e+000
    endloop
  endfacet
  facet normal -8.616292e-001 -5.075384e-001 0.000000e+000
    outer loop
      vertex   -1.413746e+001 2.790329e+001 -1.000000e+000
      vertex   -1.397817e+001 2.763288e+001 -1.000000e+000
      vertex   -1.413746e+001 2.790329e+001 1.000000e+000
    endloop
  endfacet
  facet normal -3.987491e-001 -9.170601e-001 -0.000000e+000
    outer loop
      vertex   -1.299101e+001 2.688899e+001 -1.000000e+000
      vertex   -1.327881e+001 2.701413e+001 1.000000e+000
      vertex   -1.327881e+001 2.701413e+001 -1.000000e+000
    endloop
  endfacet
  facet normal -5.372996e-001 -8.433914e-001 -0.000000e+000
    outer loop
      vertex   -1.327881e+001 2.701413e+001 -1.000000e+000
      vertex   -1.354350e+001 2.718276e+001 1.000000e+000
      vertex   -1.354350e+001 2.718276e+001 -1.000000e+000
    endloop
  endfacet
  facet normal -6.626200e-001 -7.489557e-001 -0.000000e+000
    outer loop
      vertex   -1.354350e+001 2.718276e+001 -1.000000e+000
      vertex   -1.377855e+001 2.739071e+001 1.000000e+000
      vertex   -1.377855e+001 2.739071e+001 -1.000000e+000
    endloop
  endfacet
  facet normal -7.716246e-001 -6.360782e-001 -0.000000e+000
    outer loop
      vertex   -1.377855e+001 2.739071e+001 -1.000000e+000
      vertex   -1.397817e+001 2.763288e+001 1.000000e+000
      vertex   -1.397817e+001 2.763288e+001 -1.000000e+000
    endloop
  endfacet
  facet normal -9.304176e-001 -3.665012e-001 -0.000000e+000
    outer loop
      vertex   -1.413746e+001 2.790329e+001 1.000000e+000
      vertex   -1.425248e+001 2.819529e+001 1.000000e+000
      vertex   -1.425248e+001 2.819529e+001 -1.000000e+000
    endloop
  endfacet
  facet normal -9.762960e-001 -2.164396e-001 0.000000e+000
    outer loop
      vertex   -1.425248e+001 2.819529e+001 -1.000000e+000
      vertex   -1.425248e+001 2.819529e+001 1.000000e+000
      vertex   -1.432041e+001 2.850168e+001 1.000000e+000
    endloop
  endfacet
  facet normal -9.981348e-001 -6.104854e-002 0.000000e+000
    outer loop
      vertex   -1.432041e+001 2.850168e+001 -1.000000e+000
      vertex   -1.432041e+001 2.850168e+001 1.000000e+000
      vertex   -1.433957e+001 2.881493e+001 1.000000e+000
    endloop
  endfacet
  facet normal -9.953962e-001 9.584575e-002 0.000000e+000
    outer loop
      vertex   -1.433957e+001 2.881493e+001 -1.000000e+000
      vertex   -1.433957e+001 2.881493e+001 1.000000e+000
      vertex   -1.430949e+001 2.912733e+001 1.000000e+000
    endloop
  endfacet
  facet normal -9.953962e-001 9.584575e-002 0.000000e+000
    outer loop
      vertex   -1.430949e+001 2.912733e+001 -1.000000e+000
      vertex   -1.433957e+001 2.881493e+001 -1.000000e+000
      vertex   -1.430949e+001 2.912733e+001 1.000000e+000
    endloop
  endfacet
  facet normal -9.762960e-001 -2.164396e-001 -0.000000e+000
    outer loop
      vertex   -1.425248e+001 2.819529e+001 -1.000000e+000
      vertex   -1.432041e+001 2.850168e+001 1.000000e+000
      vertex   -1.432041e+001 2.850168e+001 -1.000000e+000
    endloop
  endfacet
  facet normal -9.981348e-001 -6.104854e-002 -0.000000e+000
    outer loop
      vertex   -1.432041e+001 2.850168e+001 -1.000000e+000
      vertex   -1.433957e+001 2.881493e+001 1.000000e+000
      vertex   -1.433957e+001 2.881493e+001 -1.000000e+000
    endloop
  endfacet
  facet normal -0.000000e+000 -0.000000e+000 1.000000e+000
    outer loop
      vertex   -1.430949e+001 2.912733e+001 1.000000e+000
      vertex   2.340865e+001 2.247660e+001 1.000000e+000
      vertex   -1.182632e+001 4.321008e+001 1.000000e+000
    endloop
  endfacet
  facet normal -0.000000e+000 0.000000e+000 1.000000e+000
    outer loop
      vertex   -1.430949e+001 2.912733e+001 1.000000e+000
      vertex   2.109174e+001 2.085428e+001 1.000000e+000
      vertex   2.340865e+001 2.247660e+001 1.000000e+000
    endloop
  endfacet
  facet normal 0.000000e+000 0.000000e+000 1.000000e+000
    outer loop
      vertex   -1.430949e+001 2.912733e+001 1.000000e+000
      vertex   -1.268717e+001 2.681041e+001 1.000000e+000
      vertex   2.109174e+001 2.085428e+001 1.000000e+000
    endloop
  endfacet
  facet normal 0.000000e+000 0.000000e+000 1.000000e+000
    outer loop
      vertex   -1.430949e+001 2.912733e+001 1.000000e+000
      vertex   -1.433957e+001 2.881493e+001 1.000000e+000
      vertex   -1.268717e+001 2.681041e+001 1.000000e+000
    endloop
  endfacet
  facet normal 0.000000e+000 0.000000e+000 1.000000e+000
    outer loop
      vertex   -1.268717e+001 2.681041e+001 1.000000e+000
      vertex   -1.433957e+001 2.881493e+001 1.000000e+000
      vertex   -1.432041e+001 2.850168e+001 1.000000e+000
    endloop
  endfacet
  facet normal -0.000000e+000 -0.000000e+000 1.000000e+000
    outer loop
      vertex   -1.425248e+001 2.819529e+001 1.000000e+000
      vertex   -1.268717e+001 2.681041e+001 1.000000e+000
      vertex   -1.432041e+001 2.850168e+001 1.000000e+000
    endloop
  endfacet
  facet normal 0.000000e+000 0.000000e+000 1.000000e+000
    outer loop
      vertex   -1.425248e+001 2.819529e+001 1.000000e+000
      vertex   -1.413746e+001 2.790329e+001 1.000000e+000
      vertex   -1.268717e+001 2.681041e+001 1.000000e+000
    endloop
  endfacet
  facet normal 0.000000e+000 0.000000e+000 1.000000e+000
    outer loop
      vertex   -1.268717e+001 2.681041e+001 1.000000e+000
      vertex   -1.413746e+001 2.790329e+001 1.000000e+000
      vertex   -1.397817e+001 2.763288e+001 1.000000e+000
    endloop
  endfacet
  facet normal -0.000000e+000 -0.000000e+000 1.000000e+000
    outer loop
      vertex   -1.377855e+001 2.739071e+001 1.000000e+000
      vertex   -1.268717e+001 2.681041e+001 1.000000e+000
      vertex   -1.397817e+001 2.763288e+001 1.000000e+000
    endloop
  endfacet
  facet normal 0.000000e+000 0.000000e+000 1.000000e+000
    outer loop
      vertex   -1.377855e+001 2.739071e+001 1.000000e+000
      vertex   -1.354350e+001 2.718276e+001 1.000000e+000
      vertex   -1.268717e+001 2.681041e+001 1.000000e+000
    endloop
  endfacet
  facet normal 0.000000e+000 0.000000e+000 1.000000e+000
    outer loop
      vertex   -1.268717e+001 2.681041e+001 1.000000e+000
      vertex   -1.354350e+001 2.718276e+001 1.000000e+000
      vertex   -1.327881e+001 2.701413e+001 1.000000e+000
    endloop
  endfacet
  facet normal -0.000000e+000 -0.000000e+000 1.000000e+000
    outer loop
      vertex   -1.299101e+001 2.688899e+001 1.000000e+000
      vertex   -1.268717e+001 2.681041e+001 1.000000e+000
      vertex   -1.327881e+001 2.701413e+001 1.000000e+000
    endloop
  endfacet
  facet normal 0.000000e+000 -0.000000e+000 1.000000e+000
    outer loop
      vertex   2.140413e+001 2.082420e+001 1.000000e+000
      vertex   2.171738e+001 2.084336e+001 1.000000e+000
      vertex   2.109174e+001 2.085428e+001 1.000000e+000
    endloop
  endfacet
  facet normal -0.000000e+000 0.000000e+000 1.000000e+000
    outer loop
      vertex   2.109174e+001 2.085428e+001 1.000000e+000
      vertex   2.171738e+001 2.084336e+001 1.000000e+000
      vertex   2.202378e+001 2.091129e+001 1.000000e+000
    endloop
  endfacet
  facet normal -0.000000e+000 0.000000e+000 1.000000e+000
    outer loop
      vertex   2.231578e+001 2.102631e+001 1.000000e+000
      vertex   2.109174e+001 2.085428e+001 1.000000e+000
      vertex   2.202378e+001 2.091129e+001 1.000000e+000
    endloop
  endfacet
  facet normal 0.000000e+000 -0.000000e+000 1.000000e+000
    outer loop
      vertex   2.231578e+001 2.102631e+001 1.000000e+000
      vertex   2.258619e+001 2.118559e+001 1.000000e+000
      vertex   2.109174e+001 2.085428e+001 1.000000e+000
    endloop
  endfacet
  facet normal 0.000000e+000 0.000000e+000 1.000000e+000
    outer loop
      vertex   2.109174e+001 2.085428e+001 1.000000e+000
      vertex   2.258619e+001 2.118559e+001 1.000000e+000
      vertex   2.282835e+001 2.138522e+001 1.000000e+000
    endloop
  endfacet
  facet normal -0.000000e+000 0.000000e+000 1.000000e+000
    outer loop
      vertex   2.303631e+001 2.162027e+001 1.000000e+000
      vertex   2.109174e+001 2.085428e+001 1.000000e+000
      vertex   2.282835e+001 2.138522e+001 1.000000e+000
    endloop
  endfacet
  facet normal 0.000000e+000 -0.000000e+000 1.000000e+000
    outer loop
      vertex   2.303631e+001 2.162027e+001 1.000000e+000
      vertex   2.320493e+001 2.188495e+001 1.000000e+000
      vertex   2.109174e+001 2.085428e+001 1.000000e+000
    endloop
  endfacet
  facet normal 0.000000e+000 0.000000e+000 1.000000e+000
    outer loop
      vertex   2.109174e+001 2.085428e+001 1.000000e+000
      vertex   2.320493e+001 2.188495e+001 1.000000e+000
      vertex   2.333007e+001 2.217276e+001 1.000000e+000
    endloop
  endfacet
  facet normal -0.000000e+000 0.000000e+000 1.000000e+000
    outer loop
      vertex   2.340865e+001 2.247660e+001 1.000000e+000
      vertex   2.109174e+001 2.085428e+001 1.000000e+000
      vertex   2.333007e+001 2.217276e+001 1.000000e+000
    endloop
  endfacet
  facet normal 0.000000e+000 -0.000000e+000 1.000000e+000
    outer loop
      vertex   2.340865e+001 2.247660e+001 1.000000e+000
      vertex   2.589182e+001 3.655935e+001 1.000000e+000
      vertex   -1.182632e+001 4.321008e+001 1.000000e+000
    endloop
  endfacet
  facet normal -0.000000e+000 -0.000000e+000 1.000000e+000
    outer loop
      vertex   -1.182632e+001 4.321008e+001 1.000000e+000
      vertex   2.589182e+001 3.655935e+001 1.000000e+000
      vertex   -1.044145e+001 4.477539e+001 1.000000e+000
    endloop
  endfacet
  facet normal 0.000000e+000 -0.000000e+000 1.000000e+000
    outer loop
      vertex   -1.174774e+001 4.351392e+001 1.000000e+000
      vertex   -1.044145e+001 4.477539e+001 1.000000e+000
      vertex   -1.162260e+001 4.380172e+001 1.000000e+000
    endloop
  endfacet
  facet normal -0.000000e+000 0.000000e+000 1.000000e+000
    outer loop
      vertex   -1.174774e+001 4.351392e+001 1.000000e+000
      vertex   -1.182632e+001 4.321008e+001 1.000000e+000
      vertex   -1.044145e+001 4.477539e+001 1.000000e+000
    endloop
  endfacet
  facet normal 0.000000e+000 0.000000e+000 1.000000e+000
    outer loop
      vertex   2.592190e+001 3.687174e+001 1.000000e+000
      vertex   2.536088e+001 3.829596e+001 1.000000e+000
      vertex   2.589182e+001 3.655935e+001 1.000000e+000
    endloop
  endfacet
  facet normal 0.000000e+000 0.000000e+000 1.000000e+000
    outer loop
      vertex   2.592190e+001 3.687174e+001 1.000000e+000
      vertex   2.590274e+001 3.718499e+001 1.000000e+000
      vertex   2.536088e+001 3.829596e+001 1.000000e+000
    endloop
  endfacet
  facet normal -0.000000e+000 -0.000000e+000 1.000000e+000
    outer loop
      vertex   2.536088e+001 3.829596e+001 1.000000e+000
      vertex   2.590274e+001 3.718499e+001 1.000000e+000
      vertex   2.583481e+001 3.749139e+001 1.000000e+000
    endloop
  endfacet
  facet normal 0.000000e+000 0.000000e+000 1.000000e+000
    outer loop
      vertex   2.571979e+001 3.778339e+001 1.000000e+000
      vertex   2.536088e+001 3.829596e+001 1.000000e+000
      vertex   2.583481e+001 3.749139e+001 1.000000e+000
    endloop
  endfacet
  facet normal 0.000000e+000 0.000000e+000 1.000000e+000
    outer loop
      vertex   2.571979e+001 3.778339e+001 1.000000e+000
      vertex   2.556051e+001 3.805380e+001 1.000000e+000
      vertex   2.536088e+001 3.829596e+001 1.000000e+000
    endloop
  endfacet
  facet normal 0.000000e+000 0.000000e+000 1.000000e+000
    outer loop
      vertex   2.536088e+001 3.829596e+001 1.000000e+000
      vertex   2.512583e+001 3.850392e+001 1.000000e+000
      vertex   2.589182e+001 3.655935e+001 1.000000e+000
    endloop
  endfacet
  facet normal 0.000000e+000 0.000000e+000 1.000000e+000
    outer loop
      vertex   2.589182e+001 3.655935e+001 1.000000e+000
      vertex   2.512583e+001 3.850392e+001 1.000000e+000
      vertex   -1.044145e+001 4.477539e+001 1.000000e+000
    endloop
  endfacet
  facet normal -0.000000e+000 -0.000000e+000 1.000000e+000
    outer loop
      vertex   -1.044145e+001 4.477539e+001 1.000000e+000
      vertex   2.512583e+001 3.850392e+001 1.000000e+000
      vertex   -1.013505e+001 4.484332e+001 1.000000e+000
    endloop
  endfacet
  facet normal -0.000000e+000 -0.000000e+000 1.000000e+000
    outer loop
      vertex   -1.013505e+001 4.484332e+001 1.000000e+000
      vertex   2.512583e+001 3.850392e+001 1.000000e+000
      vertex   2.486115e+001 3.867254e+001 1.000000e+000
    endloop
  endfacet
  facet normal -0.000000e+000 -0.000000e+000 1.000000e+000
    outer loop
      vertex   -9.821797e+000 4.486248e+001 1.000000e+000
      vertex   2.486115e+001 3.867254e+001 1.000000e+000
      vertex   2.457334e+001 3.879768e+001 1.000000e+000
    endloop
  endfacet
  facet normal -0.000000e+000 -0.000000e+000 1.000000e+000
    outer loop
      vertex   -9.509405e+000 4.483240e+001 1.000000e+000
      vertex   2.457334e+001 3.879768e+001 1.000000e+000
      vertex   2.426950e+001 3.887626e+001 1.000000e+000
    endloop
  endfacet
  facet normal 0.000000e+000 0.000000e+000 1.000000e+000
    outer loop
      vertex   -9.509405e+000 4.483240e+001 1.000000e+000
      vertex   -9.821797e+000 4.486248e+001 1.000000e+000
      vertex   2.457334e+001 3.879768e+001 1.000000e+000
    endloop
  endfacet
  facet normal -0.000000e+000 -0.000000e+000 1.000000e+000
    outer loop
      vertex   -1.013505e+001 4.484332e+001 1.000000e+000
      vertex   2.486115e+001 3.867254e+001 1.000000e+000
      vertex   -9.821797e+000 4.486248e+001 1.000000e+000
    endloop
  endfacet
  facet normal -0.000000e+000 0.000000e+000 1.000000e+000
    outer loop
      vertex   -1.073344e+001 4.466037e+001 1.000000e+000
      vertex   -1.100385e+001 4.450108e+001 1.000000e+000
      vertex   -1.044145e+001 4.477539e+001 1.000000e+000
    endloop
  endfacet
  facet normal 0.000000e+000 0.000000e+000 1.000000e+000
    outer loop
      vertex   -1.044145e+001 4.477539e+001 1.000000e+000
      vertex   -1.100385e+001 4.450108e+001 1.000000e+000
      vertex   -1.124602e+001 4.430146e+001 1.000000e+000
    endloop
  endfacet
  facet normal 0.000000e+000 -0.000000e+000 1.000000e+000
    outer loop
      vertex   -1.145397e+001 4.406641e+001 1.000000e+000
      vertex   -1.044145e+001 4.477539e+001 1.000000e+000
      vertex   -1.124602e+001 4.430146e+001 1.000000e+000
    endloop
  endfacet
  facet normal -0.000000e+000 0.000000e+000 1.000000e+000
    outer loop
      vertex   -1.145397e+001 4.406641e+001 1.000000e+000
      vertex   -1.162260e+001 4.380172e+001 1.000000e+000
      vertex   -1.044145e+001 4.477539e+001 1.000000e+000
    endloop
  endfacet
endsolid