# Rhino

v 18 7.250002861022949 6.249991893768311
v 18 -7.249997138977051 6.249991893768311
v 0 7.250002861022949 6.249991893768311
v 0 -7.249997138977051 6.249991893768311
v 9 7.250002861022949 6.249991893768311
v 18 2.780878048724844e-06 6.249991893768311
v 9 -7.249997138977051 6.249991893768311
v 0 2.780878048724844e-06 6.249991893768311
v 18 7.250002861022949 6.249991893768311
v 18 7.250002861022949 -6.25000810623169
v 18 -7.249997138977051 6.249991893768311
v 18 -7.249997138977051 -6.25000810623169
v 18 7.250002861022949 -7.99059580458561e-06
v 18 2.780878048724844e-06 6.249991893768311
v 18 2.780878048724844e-06 -6.25000810623169
v 18 -7.249997138977051 -7.99059580458561e-06
v 18 7.250002861022949 -6.25000810623169
v 18 -7.249997138977051 -6.25000810623169
v 0 7.250002861022949 -6.25000810623169
v 0 -7.249997138977051 -6.25000810623169
v 9 7.250002861022949 -6.25000810623169
v 18 2.780878048724844e-06 -6.25000810623169
v 9 -7.249997138977051 -6.25000810623169
v 0 2.780878048724844e-06 -6.25000810623169
v 18 -7.249997138977051 6.249991893768311
v 18 -7.249997138977051 -6.25000810623169
v 0 -7.249997138977051 6.249991893768311
v 0 -7.249997138977051 -6.25000810623169
v 9 -7.249997138977051 6.249991893768311
v 9 -7.249997138977051 -6.25000810623169
v 18 -7.249997138977051 -7.99059580458561e-06
v 0 -7.249997138977051 -7.99059580458561e-06
v 0 -7.249997138977051 6.249991893768311
v 0 -7.249997138977051 -6.25000810623169
v 0 7.250002861022949 6.249991893768311
v 0 7.250002861022949 -6.25000810623169
v 0 2.780878048724844e-06 6.249991893768311
v 0 2.780878048724844e-06 -6.25000810623169
v 0 -7.249997138977051 -7.99059580458561e-06
v 0 7.250002861022949 -7.99059580458561e-06
v 0 7.250002861022949 6.249991893768311
v 0 7.250002861022949 -6.25000810623169
v 18 7.250002861022949 6.249991893768311
v 18 7.250002861022949 -6.25000810623169
v 9 7.250002861022949 6.249991893768311
v 18 7.250002861022949 -7.99059580458561e-06
v 9 7.250002861022949 -6.25000810623169
v 0 7.250002861022949 -7.99059580458561e-06
vt 0 0.5
vt 0 0.8360292911529541
vt 0.4171397984027863 0.5
vt 0.4171397984027863 0.8360292911529541
vt 0.2085698992013931 0.5
vt 0 0.6680146455764771
vt 0.2085698992013931 0.8360292911529541
vt 0.4171397984027863 0.6680146455764771
vt 0.99853515625 0
vt 0.7093023061752319 0
vt 0.99853515625 0.3355100750923157
vt 0.7093023061752319 0.3355100750923157
vt 0.853918731212616 0
vt 0.99853515625 0.1677550375461578
vt 0.7093023061752319 0.1677550375461578
vt 0.853918731212616 0.3355100750923157
vt 0 0
vt 0 0.3360292911529541
vt 0.4171397984027863 0
vt 0.4171397984027863 0.3360292911529541
vt 0.2085698992013931 0
vt 0 0.1680146455764771
vt 0.2085698992013931 0.3360292911529541
vt 0.4171397984027863 0.1680146455764771
vt 0.99853515625 0.446153849363327
vt 0.7093023061752319 0.446153849363327
vt 0.99853515625 0.862649142742157
vt 0.7093023061752319 0.862649142742157
vt 0.99853515625 0.6544014811515808
vt 0.7093023061752319 0.6544014811515808
vt 0.853918731212616 0.446153849363327
vt 0.853918731212616 0.862649142742157
vt 0.7078374624252319 0
vt 0.4186046421527863 0
vt 0.7078374624252319 0.3355100750923157
vt 0.4186046421527863 0.3355100750923157
vt 0.7078374624252319 0.1677550375461578
vt 0.4186046421527863 0.1677550375461578
vt 0.5632210373878479 0
vt 0.5632210373878479 0.3355100750923157
vt 0.7078374624252319 0.446153849363327
vt 0.4186046421527863 0.446153849363327
vt 0.7078374624252319 0.862649142742157
vt 0.4186046421527863 0.862649142742157
vt 0.7078374624252319 0.6544014811515808
vt 0.5632210373878479 0.862649142742157
vt 0.4186046421527863 0.6544014811515808
vt 0.5632210373878479 0.446153849363327
vn 0 0 1
vn 0 0 1
vn 0 0 1
vn 0 0 1
vn 0 0 1
vn 0 0 1
vn 0 0 1
vn 0 0 1
vn 1 0 0
vn 1 0 0
vn 1 0 0
vn 1 0 0
vn 1 0 0
vn 1 0 0
vn 1 0 0
vn 1 0 0
vn -0 -0 -1
vn -0 -0 -1
vn -0 -0 -1
vn -0 -0 -1
vn -0 -0 -1
vn -0 -0 -1
vn -0 -0 -1
vn -0 -0 -1
vn -0 -1 -0
vn -0 -1 -0
vn -0 -1 -0
vn -0 -1 -0
vn -0 -1 -0
vn -0 -1 -0
vn -0 -1 -0
vn -0 -1 -0
vn -1 0 0
vn -1 0 0
vn -1 0 0
vn -1 0 0
vn -1 0 0
vn -1 0 0
vn -1 0 0
vn -1 0 0
vn -0 1 0
vn -0 1 0
vn -0 1 0
vn -0 1 0
vn -0 1 0
vn -0 1 0
vn -0 1 0
vn -0 1 0
f 1/1/1 5/5/5 6/6/6
f 5/5/5 3/3/3 8/8/8
f 2/2/2 6/6/6 7/7/7
f 4/4/4 7/7/7 8/8/8
f 6/6/6 5/5/5 7/7/7
f 5/5/5 8/8/8 7/7/7
f 10/10/10 13/13/13 15/15/15
f 13/13/13 9/9/9 14/14/14
f 14/14/14 11/11/11 16/16/16
f 12/12/12 15/15/15 16/16/16
f 15/15/15 13/13/13 14/14/14
f 14/14/14 16/16/16 15/15/15
f 17/17/17 22/22/22 21/21/21
f 21/21/21 24/24/24 19/19/19
f 18/18/18 23/23/23 22/22/22
f 20/20/20 24/24/24 23/23/23
f 22/22/22 23/23/23 21/21/21
f 21/21/21 23/23/23 24/24/24
f 25/25/25 29/29/29 31/31/31
f 29/29/29 27/27/27 32/32/32
f 28/28/28 30/30/30 32/32/32
f 30/30/30 26/26/26 31/31/31
f 31/31/31 29/29/29 30/30/30
f 29/29/29 32/32/32 30/30/30
f 33/33/33 37/37/37 39/39/39
f 37/37/37 35/35/35 40/40/40
f 36/36/36 38/38/38 40/40/40
f 38/38/38 34/34/34 39/39/39
f 39/39/39 37/37/37 38/38/38
f 37/37/37 40/40/40 38/38/38
f 41/41/41 45/45/45 48/48/48
f 45/45/45 43/43/43 46/46/46
f 46/46/46 44/44/44 47/47/47
f 47/47/47 42/42/42 48/48/48
f 48/48/48 45/45/45 47/47/47
f 45/45/45 46/46/46 47/47/47
