# Rhino

v 0 4.25 -4.25
v 0 4.25 4.25
v 0 -4.25 -4.25
v 0 -4.25 4.25
v 0 0 -4.25
v 0 4.25 0
v 0 0 4.25
v 0 -4.25 0
v 0 4.25 -4.25
v 15 4.25 -4.25
v 0 4.25 4.25
v 15 4.25 4.25
v 7.5 4.25 -4.25
v 0 4.25 0
v 15 4.25 0
v 7.5 4.25 4.25
v 15 4.25 -4.25
v 15 4.25 4.25
v 15 -4.25 -4.25
v 15 -4.25 4.25
v 15 0 -4.25
v 15 4.25 0
v 15 0 4.25
v 15 -4.25 0
v 0 4.25 4.25
v 15 4.25 4.25
v 0 -4.25 4.25
v 15 -4.25 4.25
v 0 0 4.25
v 15 0 4.25
v 7.5 4.25 4.25
v 7.5 -4.25 4.25
v 0 -4.25 4.25
v 15 -4.25 4.25
v 0 -4.25 -4.25
v 15 -4.25 -4.25
v 0 -4.25 0
v 15 -4.25 0
v 7.5 -4.25 4.25
v 7.5 -4.25 -4.25
v 0 -4.25 -4.25
v 15 -4.25 -4.25
v 0 4.25 -4.25
v 15 4.25 -4.25
v 0 0 -4.25
v 7.5 4.25 -4.25
v 15 0 -4.25
v 7.5 -4.25 -4.25
vt 0.99853515625 0
vt 0.734375 0
vt 0.99853515625 0.26416015625
vt 0.734375 0.26416015625
vt 0.99853515625 0.132080078125
vt 0.866455078125 0
vt 0.734375 0.132080078125
vt 0.866455078125 0.26416015625
vt 0.734375 0.3617021143436432
vt 0.734375 0.8278670907020569
vt 0.99853515625 0.3617021143436432
vt 0.99853515625 0.8278670907020569
vt 0.734375 0.5947846174240112
vt 0.866455078125 0.3617021143436432
vt 0.866455078125 0.8278670907020569
vt 0.99853515625 0.5947846174240112
vt 0.73291015625 0
vt 0.46875 0
vt 0.73291015625 0.26416015625
vt 0.46875 0.26416015625
vt 0.73291015625 0.132080078125
vt 0.600830078125 0
vt 0.46875 0.132080078125
vt 0.600830078125 0.26416015625
vt 0.46875 0.3617021143436432
vt 0.46875 0.8278670907020569
vt 0.73291015625 0.3617021143436432
vt 0.73291015625 0.8278670907020569
vt 0.600830078125 0.3617021143436432
vt 0.600830078125 0.8278670907020569
vt 0.46875 0.5947846174240112
vt 0.73291015625 0.5947846174240112
vt 0.46728515625 0.5
vt 0 0.5
vt 0.46728515625 0.7647949457168579
vt 0 0.7647949457168579
vt 0.46728515625 0.632397472858429
vt 0 0.632397472858429
vt 0.233642578125 0.5
vt 0.233642578125 0.7647949457168579
vt 0.46728515625 0
vt 0 0
vt 0.46728515625 0.2647949159145355
vt 0 0.2647949159145355
vt 0.46728515625 0.1323974579572678
vt 0.233642578125 0.2647949159145355
vt 0 0.1323974579572678
vt 0.233642578125 0
vn -1 0 0
vn -1 0 0
vn -1 0 0
vn -1 0 0
vn -1 0 0
vn -1 0 0
vn -1 0 0
vn -1 0 0
vn 0 1 0
vn 0 1 0
vn 0 1 0
vn 0 1 0
vn 0 1 0
vn 0 1 0
vn 0 1 0
vn 0 1 0
vn 1 -0 -0
vn 1 -0 -0
vn 1 -0 -0
vn 1 -0 -0
vn 1 -0 -0
vn 1 -0 -0
vn 1 -0 -0
vn 1 -0 -0
vn -0 0 1
vn -0 0 1
vn -0 0 1
vn -0 0 1
vn -0 0 1
vn -0 0 1
vn -0 0 1
vn -0 0 1
vn 0 -1 0
vn 0 -1 0
vn 0 -1 0
vn 0 -1 0
vn 0 -1 0
vn 0 -1 0
vn 0 -1 0
vn 0 -1 0
vn 0 0 -1
vn 0 0 -1
vn 0 0 -1
vn 0 0 -1
vn 0 0 -1
vn 0 0 -1
vn 0 0 -1
vn 0 0 -1
f 1/1/1 5/5/5 6/6/6
f 5/5/5 3/3/3 8/8/8
f 2/2/2 6/6/6 7/7/7
f 4/4/4 7/7/7 8/8/8
f 6/6/6 5/5/5 7/7/7
f 5/5/5 8/8/8 7/7/7
f 10/10/10 13/13/13 15/15/15
f 13/13/13 9/9/9 14/14/14
f 14/14/14 11/11/11 16/16/16
f 12/12/12 15/15/15 16/16/16
f 15/15/15 13/13/13 16/16/16
f 13/13/13 14/14/14 16/16/16
f 17/17/17 22/22/22 21/21/21
f 21/21/21 24/24/24 19/19/19
f 18/18/18 23/23/23 22/22/22
f 20/20/20 24/24/24 23/23/23
f 22/22/22 23/23/23 21/21/21
f 21/21/21 23/23/23 24/24/24
f 25/25/25 29/29/29 31/31/31
f 29/29/29 27/27/27 32/32/32
f 28/28/28 30/30/30 32/32/32
f 30/30/30 26/26/26 31/31/31
f 31/31/31 29/29/29 32/32/32
f 32/32/32 30/30/30 31/31/31
f 33/33/33 37/37/37 39/39/39
f 37/37/37 35/35/35 40/40/40
f 36/36/36 38/38/38 40/40/40
f 38/38/38 34/34/34 39/39/39
f 39/39/39 37/37/37 40/40/40
f 40/40/40 38/38/38 39/39/39
f 41/41/41 45/45/45 48/48/48
f 45/45/45 43/43/43 46/46/46
f 46/46/46 44/44/44 47/47/47
f 47/47/47 42/42/42 48/48/48
f 48/48/48 45/45/45 46/46/46
f 46/46/46 47/47/47 48/48/48
